<svg xmlns="http://www.w3.org/2000/svg" xmlns:xlink="http://www.w3.org/1999/xlink" width="1919.553" height="457.648" viewBox="0 0 1919.553 457.648">
  <defs>
    <clipPath id="clip-path">
      <rect x="1513" y="298" width="1919.553" height="457.648" fill="none"/>
    </clipPath>
  </defs>
  <g id="ctt-form-2" transform="translate(-1513 -298)" clip-path="url(#clip-path)" style="isolation: isolate">
    <g id="Group_61" data-name="Group 61" transform="translate(1230.557 -503.104)">
      <path id="Path_289" data-name="Path 289" d="M2776.769,1034.875c-13.181-40.466-56.851-59.012-133.461-56.737h0c-66.862,2.016-150.347,19.189-231.135,35.807-118.714,24.42-230.85,47.483-277.327,20.648a240.011,240.011,0,0,1-26.256-17.431c20.058-12.533,31.99-26.842,34.527-41.429,2.848-16.36-6.2-32.235-26.159-45.906-15.679-10.742-31.4-13.462-43.129-7.469-9.242,4.721-14.718,14.339-15.026,26.386-.2,7.912,2.151,36.06,40.688,67.877-14.765,8.193-32.6,15.056-53.02,20.4-8.86,2.319-22.784,4.257-40.525,5.876-93.947,4.637-119.255-10.357-119.488-10.5l-.517-.255a160.826,160.826,0,0,1-26.889-13.6c4.955-1.876,9.98-3.693,14.98-5.5,34.963-12.642,68.168-24.651,70.429-53.332h.477V752.074a37.465,37.465,0,0,0-37.422-37.422H1411.2a37.465,37.465,0,0,0-37.422,37.422V959.707a37.466,37.466,0,0,0,37.422,37.424h414.322a116.435,116.435,0,0,0,17.507,16.628q2.425,1.889,4.848,3.617c-25.864,10.516-48.445,23.626-54.973,47.037-34.521-8.824-100.267-15.5-209.073-14.97v.187c-59.558-.627-104.81-1.457-119.087-1.735-.2-.009-.389-.013-.574-.012l-4.664-.093-.742.084v.015q-6.7-.007-13.387,0l-169.919,0q-100.209,0-200.417-.006h-.031c-15.615,0-28.4,1.081-40.216,3.4-12.434,2.44-22.952,6.021-32.154,10.947-21.218,11.357-36.767,28.091-46.212,49.732-3.748,8.594-7.543,16.938-12.729,24.542-9.746,14.285-24.676,20.127-42.042,16.447-7.553-1.6-14.556-5.275-22.037-11.564-12.158-10.215-20.884-23.547-29.323-36.439l-1.526-2.328,2.627-1.81-4.68-8.807.512-.451c.589-.526,1.112-.99,1.654-1.431a67.622,67.622,0,0,0,18.1-23.507c3.126-6.438,2.979-12.741-.448-19.27a46.705,46.705,0,0,0-10.953-13.37,112.947,112.947,0,0,0-36.112-21.006c-10.312-3.743-19.986-2.869-28.749,2.6a18.651,18.651,0,0,0-6.987,6.928c-.75,1.415-1.6,2.792-2.5,4.251-.14.227-.281.455-.424.688-12.951-44.463-34.52-87.677-67.746-135.753.452-.09.881-.181,1.3-.306q1.708-.51,3.418-1.009c3.25-.95,6.61-1.932,9.865-3.07,1.327-.462,2.076-1.134,2.229-1.994.159-.9-.367-1.851-1.562-2.832-.323-.264-.663-.505-1-.747l-.431-.309a50.711,50.711,0,0,1-11.217-11.337c-9.488-13.185-13.418-29.067-12.37-49.981a3.8,3.8,0,0,1,1.23-2.375,35.45,35.45,0,0,1,3.8-2.62q.311-.2.626-.392c.107,1.6.2,3.188.3,4.768.275,4.468.536,8.687.984,12.985a77.014,77.014,0,0,0,8.76,28.921c4.952,9.118,10.676,15.142,18.011,18.956a20.114,20.114,0,0,0,14.848,1.879c6.151-1.64,10.63-5.962,13.315-12.842,2.337-5.993,2.854-12.549,1.676-21.257a103.941,103.941,0,0,0-9.361-30.56c-2.489-5.3-5.312-11.3-9.715-16.319-9.837-11.224-26.855-11.159-36.58-4.05q-6.847,5.005-13.636,10.084c-5.151,3.83-10.476,7.793-15.755,11.629a21.814,21.814,0,0,0-6.964,8.46,56.121,56.121,0,0,0-5.217,21.846c-.311,6.866-.323,14.092-.038,22.086a157.047,157.047,0,0,0,3.817,29.12c3.459,15.226,8.8,30.973,17.329,51.053,12.352,29.089,27.973,59.87,47.756,94.1.386.669.758,1.344,1.178,2.107l.112.2-166.457,0,0-.048-.738-.043c-5.173-.3-519.324-29.987-699.489,13.3a582.758,582.758,0,0,0-82.971-18.241c-111.24-16.673-238.971-9.47-359.666,20.28-152.466,37.579-305.524,58.41-431.043,58.653l-2.151,0c-115.136,0-196.583-17.507-223.456-48.031l-.486-.554-3.868,3.406.486.552c27.851,31.637,110.714,49.78,227.345,49.78l2.2,0c125.851-.243,279.344-21.127,432.2-58.8,120.059-29.593,247.082-36.758,357.668-20.187a590.82,590.82,0,0,1,74.022,15.639q-1.3.356-2.574.722c-45.04,12.869-70.321,28.755-73.109,45.94-1.555,9.591,3.818,18.9,15.54,26.917,17.932,12.264,47.66,19.883,77.587,19.881,25.349,0,48.627-5.482,65.549-15.436,16.876-9.927,16.646-21.277,13.481-29.048-6.942-17.047-34.271-34.19-77.085-48.393,177.753-38.438,634.049-14.339,686.2-11.421a6.9,6.9,0,0,0,2.237.14l.09-.009.99.057.736-.035,0-.038,164.721,0,1.554,0c1.321,0,2.639,0,3.955.01a2.954,2.954,0,0,0,3.315-2.536l.047-.252-.443-.848c-.264-.512-.546-1.06-.857-1.592-12.348-21.056-23.052-40.8-32.721-60.346-13.582-27.461-22.667-48.965-29.465-69.729a179.7,179.7,0,0,1-9.008-52.1,189.56,189.56,0,0,1,.661-19.339,47.379,47.379,0,0,1,4-15.684,17.283,17.283,0,0,1,5.428-7.294q9.721-7.15,19.422-14.334l9.978-7.375c8.428-6.224,21.355-5.652,28.817,1.265a31.259,31.259,0,0,1,5.656,7.391c8.082,14.069,12.729,27.487,14.207,41.016.773,7.079.119,12.655-2.057,17.549a15.746,15.746,0,0,1-8.522,8.613,14.478,14.478,0,0,1-11.277-.686,30.114,30.114,0,0,1-10.33-7.766C721.435,858.9,716.443,846.2,714.829,830c-.412-4.156-.456-8.436-.5-12.577-.024-2.265-.046-4.531-.125-6.794-.007-.216-.109-2.156-1.19-2.813-.844-.511-2.293-.062-3.056.42-2.957,1.867-6.31,3.982-9.441,6.326a5.7,5.7,0,0,0-1.86,3.648,84.162,84.162,0,0,0,1.162,26.493c2.455,12.865,7.332,23.334,14.913,32.006,1.748,2,3.514,3.986,5.244,5.932l1.623,1.827c-4.371,1.732-9.712,2.444-15.254,3.072l-.962.109.361.9c.206.51.364.97.508,1.393a8.151,8.151,0,0,0,1,2.209,498.652,498.652,0,0,1,29.251,45.541c13.3,23.165,23.454,44.506,31.03,65.242,2.306,6.31,4.316,12.858,6.26,19.19,1.107,3.608,2.215,7.216,3.38,10.8a6.2,6.2,0,0,0,1.346,2.063c.216.25.433.5.623.76l.467.635.6-.506c.228-.192.476-.371.722-.549a6.324,6.324,0,0,0,1.677-1.565c.841-1.28,1.629-2.615,2.39-3.907.736-1.249,1.5-2.542,2.3-3.768l.193-.295a20.569,20.569,0,0,1,3.39-4.317c6.742-5.889,14.733-7.534,23.747-4.895,11.819,3.461,23.137,9.486,34.6,18.419,6,4.673,10.084,9.242,12.864,14.377,2.657,4.907,2.964,9.519.941,14.1a64.675,64.675,0,0,1-3.706,7.161q.61-1.164,1.138-2.393c.465-1.087.863-2.313.284-3.2-.555-.847-1.708-1.026-3.271-1.037-.81-.007-1.624,0-2.437.006a53.094,53.094,0,0,1-8.423-.386c-8.8-1.362-16.475-5.806-22.181-9.525a141.243,141.243,0,0,1-26.82-23.14c-.723-.785-1.414-1.6-2.216-2.545-.411-.484-.85-1-1.336-1.568l-.617-.717-.543.775c-.334.477-.639.872-.907,1.222a8.021,8.021,0,0,0-1.221,1.907c-.349.884-.626,1.8-.892,2.68a27.71,27.71,0,0,1-1.056,3.045,5.567,5.567,0,0,0,.733,5.851c.9,1.253,1.783,2.526,2.665,3.8,2.067,2.975,4.2,6.052,6.559,8.89a66.713,66.713,0,0,0,28.053,20.114c3.375,1.274,6.9,2.274,10.3,3.238q1.557.442,3.1.89c-.38.222-.76.445-1.144.658-17.635,9.823-35.607,11.161-53.419,3.97a87.386,87.386,0,0,1-32.622-23.5c-.13-.146-.258-.309-.39-.474-.683-.859-1.956-2.462-3.835-1.166-2.094,1.439-.866,3.291-.2,4.285.11.166.216.327.312.483,8.133,13.486,17.425,23.761,28.409,31.419a54.649,54.649,0,0,0,42.142,9.333c3.11-.551,6.124-1.358,9.314-2.212,1.374-.368,2.768-.741,4.2-1.1.508.358,1.037.724,1.58,1.1,1.595,1.1,3.244,2.246,4.821,3.518,1.434,1.153,3.312,2.222,5.429.691l1.608,2.445c1.415,2.156,2.779,4.231,4.161,6.3,6.967,10.416,14.8,21.254,24.873,29.976,11.268,9.76,22.913,14.527,35.523,14.527q1.21,0,2.433-.059c13.274-.635,23.675-5.9,31.8-16.1,5.429-6.818,9.212-14.671,12.923-22.79l.252-.549c4.55-9.954,9.257-20.246,16.736-28.719,9.8-11.1,19.894-19.148,30.877-24.62,17.051-8.492,35.931-12.714,57.718-12.907,31.562-.278,63.653-.234,94.689-.193q18.877.024,37.751.031,50.83-.013,101.659-.012l160.821.009.733.078c.922.019,69.7,1.43,159.671,2.159,0-.135.015-.269.016-.4,64.892.707,117.388,4.346,153.137,10.67,7.654,1.355,14.113,2.758,19.547,4.154q-.2,1.171-.346,2.372l-.015.171c-.019.362-.414,8.919,5.637,14.269,3.038,2.687,7.06,4.038,12,4.038a33.453,33.453,0,0,0,5.874-.56c5.96-1.068,9.3-4.072,8.942-8.034-.489-5.351-8.46-10.979-25.96-16.013,6.307-22.18,29.219-34.647,55.1-44.885a165.613,165.613,0,0,0,30.958,16.02c3.116,1.817,30.9,16.082,126.049,10.949l-.012-.212c16.372-1.567,29.363-3.427,37.786-5.631,21.64-5.662,40.475-13.049,55.993-21.956a249.482,249.482,0,0,0,28.5,19.006c48.177,27.817,161.245,4.557,280.994-20.073,80.525-16.565,163.79-33.694,230.2-35.694,74.013-2.234,116.023,15.168,128.4,53.18l.229.7,4.9-1.6Zm-1926.821,40.9c-.654-1.552-2.125-1.668-3.269-1.76-17.681-1.406-32.838-9.447-45.053-23.9-2.2-2.6-4.182-5.434-6.1-8.173-.8-1.147-1.6-2.284-2.4-3.388l1.224-3.843.031.03c.573.554,1.1,1.056,1.6,1.577,9.628,10.031,18.431,17.37,27.7,23.093,8.8,5.434,16.559,8.436,24.411,9.451,1.618.209,3.275.283,5.03.361.462.019.937.041,1.425.065Zm-7.99,7.865c-3.212,2.836-3.418,3.272-1.826,6.827l-.286.252-.031-.006c-.249-.286-.461-.545-.648-.775-1.652-2.023-2.316-2.081-5.929-.521-.834.362-1.679.7-2.524,1.035-.585.234-1.171.467-1.754.708-1.34.555-2.608,1.225-2.8,2.353-.172,1.022.611,1.966,1.554,2.838-21.728,7.877-43.322,1.582-60.059-17.369.832.558,1.674,1.112,2.521,1.648,14.076,8.894,28.063,12.692,42.733,11.629A67.546,67.546,0,0,0,843.56,1082.2C843.034,1082.676,842.5,1083.155,841.958,1083.638Zm-3.421,13.577,1.689,2.172-2.434-1.742Zm-965.612-30.78c52.809,16.4,77.06,35.583,82.146,48.074,3.489,8.568-.32,16.193-11.32,22.664-39.132,23.019-107.278,16.491-137.613-4.259-6.942-4.749-14.894-12.393-13.362-21.838,2.411-14.855,27.069-29.7,69.436-41.809C-134.42,1068.305-130.817,1067.351-127.075,1066.435Zm1945.794,15.813c.062.673-1.362,1.891-4.717,2.493-6.042,1.081-10.592.325-13.52-2.243-3.958-3.472-3.948-9.4-3.933-10.086.063-.514.134-1.022.215-1.526C1813.839,1075.836,1818.557,1080.464,1818.719,1082.248ZM1411.2,991.241a31.568,31.568,0,0,1-31.532-31.534V752.074a31.567,31.567,0,0,1,31.532-31.532h496.321a31.567,31.567,0,0,1,31.532,31.532V934.712c-9.022-19.347-23.844-23.893-32.921-24.729a46.769,46.769,0,0,0-17.973,1.938c-5.824-10.289-19.071-17.6-34.267-17.892-19.665-.442-42.194,11.794-46.5,47.074-2.163,17.716,2.481,34.689,13.539,50.138Zm474.884-69.286c-.236,4.519-1.635,6.235-2.434,6.535a1.364,1.364,0,0,1-1.375-.5c-1.068-1.115-1.767-3.705-.269-7.247a9.575,9.575,0,0,1,3.4-2.229A17.309,17.309,0,0,1,1886.08,921.955ZM1827.519,991.3v-.062h-.048c-10.449-13.234-17.384-29.715-14.966-49.515,4.774-39.1,31.445-42.55,40.611-42.55.236,0,.462,0,.675.006,12.823.245,24.308,6.307,29.474,14.652-3.14,1.517-5.3,3.25-5.958,4.8-2.523,5.939-1.01,10.57,1.246,12.923a6.39,6.39,0,0,0,6.909,1.754c2-.753,5.413-3.22,5.777-11.295l.007-.166-.013-.165a22.979,22.979,0,0,0-.984-4.983,40.669,40.669,0,0,1,18.655-1.143c15.184,2.8,25.6,15.048,30.135,35.413.006.038.007.075.012.113v8.619h.163c-2.651,25.233-33.962,36.564-66.933,48.486-6.205,2.244-12.446,4.5-18.56,6.867C1844.62,1008.856,1835.141,1000.939,1827.519,991.3Zm310.522-16.453c-2.366,13.595-14.011,27.06-33.689,38.96-25.807-21.027-40.9-45.271-40.4-64.935.259-10.1,4.714-18.091,12.218-21.927a24.454,24.454,0,0,1,11.236-2.561c8.168,0,17.38,3.35,26.637,9.691C2132.218,946.526,2140.516,960.625,2138.041,974.85Z" transform="translate(0 99.972)" fill="#127e7b"/>
      <path id="Path_290" data-name="Path 290" d="M538,736.13a51.407,51.407,0,0,0,51.347,51.349h468.471a51.348,51.348,0,0,0,0-102.7H658.465c-.155,0-15.413.155-20.432,0-1.26-.038-2.592-.1-3.971-.171-7.634-.371-17.659-.86-24.979,3.059-4.208-1.792-9.578-2.736-16.144-2.88v-.006l-2.755-.124c-10.616-1.009-15.122-8.168-15.758-14.9a18.746,18.746,0,0,1,15.257-20.383h468.136a51.347,51.347,0,0,0,.083-102.694l-.01,0c-8.665-.213-15.785-1.511-21.3-3.87,4.949-3.627,7.108-8.207,9.187-13.646,4.684-12.25.5-18.855-2.408-21.7a16.293,16.293,0,0,0-17.366-3.126,14.135,14.135,0,0,0-8.968,13.147c-.006.228-.032.542-.062.931-.292,3.827-1.062,13.992,6.5,22.349.381.42.776.831,1.185,1.228-9.505,2.964-25.611,4.69-54.1,4.69H589.347a2.945,2.945,0,1,0,0,5.89H970.552c32.221,0,49.658-2.2,59.764-6.335,6.756,3.926,15.938,6.051,27.43,6.334h.072a45.458,45.458,0,1,1,0,90.915H589.444l-5.429-.317a44.925,44.925,0,0,1-13.484-3.749,45.471,45.471,0,0,1-14.384-72.443,2.945,2.945,0,0,0-4.3-4.025,51.318,51.318,0,0,0,25.844,85.084l-.032.577a25.331,25.331,0,0,0-9.1,21.7,22.084,22.084,0,0,0,8.869,15.88A51.427,51.427,0,0,0,538,736.13Zm492.76-196.652a21.14,21.14,0,0,1-2.92-2.667c-5.862-6.481-5.251-14.521-4.991-17.954.038-.518.069-.938.077-1.243a8.206,8.206,0,0,1,5.3-7.824A10.783,10.783,0,0,1,1032.3,509a9.971,9.971,0,0,1,6.956,2.668c3.243,3.173,3.606,8.638,1.025,15.39C1038.428,531.9,1036.8,536.168,1030.76,539.478ZM605.51,702.642a13.235,13.235,0,0,1,4-8.081,12.081,12.081,0,0,1,2.434,2.11c2.443,2.8,3.243,6.618,2.443,11.676a3.8,3.8,0,0,1-2.5,2.872,4.754,4.754,0,0,1-4.628-.613C605.535,709.211,604.914,706.384,605.51,702.642Zm-16.163-11.969h.063a50.951,50.951,0,0,1,14.309,1.378,20.009,20.009,0,0,0-4.027,9.667c-1.266,7.971,1.873,11.857,3.857,13.464A10.574,10.574,0,0,0,614,716.715a9.6,9.6,0,0,0,6.207-7.451c1.073-6.791-.214-12.333-3.824-16.468a17.52,17.52,0,0,0-1.219-1.262c4.929-1.467,11.377-1.393,18.615-1.04,1.417.069,2.783.136,4.078.177,5.138.16,20.042.006,20.643,0h399.324a45.458,45.458,0,1,1,0,90.915H589.347a45.458,45.458,0,0,1,0-90.915Z" transform="translate(835.773)" fill="#127e7b"/>
    </g>
  </g>
</svg>
