<svg xmlns="http://www.w3.org/2000/svg" width="32.591" height="32.624" viewBox="0 0 32.591 32.624">
  <defs>
    <style>
      .cls-1 {
        fill: #fff;
        fill-rule: evenodd;
      }
    </style>
  </defs>
  <g id="whatsapp" transform="translate(-1499.213 -6100.166)">
    <path id="Path_216" data-name="Path 216" class="cls-1" d="M6635,3357.625l2.281-8.122a16.232,16.232,0,1,1,6.082,5.979Zm8.778-5.115.519.311a13.527,13.527,0,1,0-4.354-4.251l.345.519-1.313,4.666Z" transform="translate(-5135.787 2775.166)"/>
    <path id="Path_217" data-name="Path 217" class="cls-1" d="M6872.423,3575.069l-1.071-.069a1.42,1.42,0,0,0-.9.311,5.012,5.012,0,0,0-1.59,2.419c-.38,1.693.207,3.732,1.728,5.771a17,17,0,0,0,9.228,6.7,4.468,4.468,0,0,0,3.8-.484,3.41,3.41,0,0,0,1.486-2.143l.173-.795a.662.662,0,0,0-.311-.622l-3.56-1.625a.592.592,0,0,0-.691.173l-1.382,1.8a.378.378,0,0,1-.449.138,11.034,11.034,0,0,1-5.944-5.081.434.434,0,0,1,.069-.449l1.313-1.555a.541.541,0,0,0,.1-.553l-1.556-3.594A.478.478,0,0,0,6872.423,3575.069Z" transform="translate(-5361.459 2533.807)"/>
  </g>
</svg>
