 <svg
        xmlns="http://www.w3.org/2000/svg"
        viewBox="0 0 1406 274.03"
      >
        <defs>
          <style>
            .cls-1 {
              fill: #127e7b;    
            }
            .cls-2 {
              fill: #f8f8f8;
            }
          </style>
        </defs>
        <g id="Camada_1" data-name="Camada 1">
          <path
            class="cls-1"
            d="M1352.16,181.19A181.45,181.45,0,0,1,1333.59,169a.94.94,0,0,1,.07-1.53c14.31-9.2,22.83-19.63,24.68-30.26,2.13-12.23-4.63-24.1-19.56-34.32-11.72-8-23.48-10.07-32.25-5.58-6.91,3.53-11,10.72-11.24,19.73-.15,5.84,1.57,26.44,29.37,49.87a.94.94,0,0,1-.14,1.54c-10.8,5.84-23.72,10.74-38.45,14.6-6.63,1.73-17,3.18-30.3,4.39-70.25,3.47-89.17-7.74-89.34-7.85l-.39-.19a118.29,118.29,0,0,1-18.46-9.16.94.94,0,0,1,.15-1.68c3.12-1.17,6.27-2.31,9.41-3.44,26.12-9.45,50.93-18.42,52.66-39.83v-.1c0-.78-.2-11.09-4.05-18.64-7.24-14.22-17.83-17.86-24.62-18.49a35.14,35.14,0,0,0-12.75,1.24.93.93,0,0,1-1.06-.41c-4.53-7.36-14.2-12.54-25.25-12.75-14.7-.33-31.55,8.82-34.77,35.2-1.6,13.13,1.8,25.71,9.91,37.17a53.76,53.76,0,0,0,3.65,4.72,86.78,86.78,0,0,0,13.09,12.43c.76.59,1.52,1.17,2.29,1.73a.94.94,0,0,1-.2,1.61c-18.37,7.63-34.26,17.17-39.31,33.68a.93.93,0,0,1-1.11.64c-26-6.49-75-11.37-155.47-11v.14c-44.53-.47-78.37-1.09-89-1.3h-.43l-3.49-.07-.55.06H559.7a154.33,154.33,0,0,0-30.07,2.54,84.57,84.57,0,0,0-24,8.19A75.63,75.63,0,0,0,471,239.06c-2.8,6.43-5.64,12.66-9.52,18.35-7.29,10.68-18.45,15-31.44,12.3-5.65-1.2-10.88-3.94-16.48-8.65-9.09-7.64-15.62-17.61-21.93-27.25l-.64-1a.93.93,0,0,1,.25-1.28l.53-.36a.93.93,0,0,0,.29-1.21L389,224.13l.38-.34c.44-.39.83-.74,1.24-1.07a50.44,50.44,0,0,0,13.53-17.58,15.06,15.06,0,0,0-.33-14.41,35.08,35.08,0,0,0-8.19-10,84.61,84.61,0,0,0-27-15.71c-7.71-2.8-14.94-2.14-21.5,2a13.92,13.92,0,0,0-5.22,5.18c-.56,1.06-1.2,2.09-1.87,3.18-.1.17-.21.34-.32.51C330,142.59,313.9,110.28,289.06,74.33c.34-.07.66-.14,1-.23l2.56-.75c2.43-.71,4.94-1.44,7.38-2.3,1-.35,1.55-.85,1.67-1.49s-.27-1.38-1.17-2.12c-.24-.2-.5-.38-.75-.56l-.32-.23A37.93,37.93,0,0,1,291,58.17c-7.09-9.86-10-21.73-9.25-37.37a2.86,2.86,0,0,1,.92-1.78,20.7,20.7,0,0,1,2-1.41l1.43.73.12,2c.21,3.34.4,6.5.74,9.71a57.65,57.65,0,0,0,6.55,21.63c3.7,6.82,8,11.32,13.47,14.17a15,15,0,0,0,11.1,1.4c4.6-1.23,7.95-4.46,10-9.6,1.75-4.48,2.13-9.38,1.25-15.89a77.79,77.79,0,0,0-7-22.85c-1.86-4-4-8.45-7.26-12.2-7.36-8.39-20.08-8.34-27.35-3-3.41,2.5-6.8,5-10.2,7.54-3.85,2.86-7.83,5.83-11.78,8.7a16.26,16.26,0,0,0-5.21,6.33,41.9,41.9,0,0,0-3.9,16.33c-.23,5.13-.24,10.54,0,16.51a118,118,0,0,0,2.85,21.77C262,92.25,266,104,272.36,119c9.24,21.75,20.92,44.77,35.71,70.36.29.5.57,1,.88,1.58l.08.15H184.57v0l-.55,0c-1.77-.11-83.25-4.81-184-6.79v3.83c89.59,1.77,164.09,5.73,181.25,6.69l.15,0a5.38,5.38,0,0,0,1.6.08h.07l.74,0,.55,0v0H311.64a2.22,2.22,0,0,0,2.48-1.9l0-.19-.33-.63c-.2-.38-.41-.79-.64-1.19-9.23-15.74-17.24-30.5-24.47-45.12-10.16-20.53-16.95-36.61-22-52.14a134.61,134.61,0,0,1-6.74-39c-.09-4.43.07-9.16.49-14.46a35.52,35.52,0,0,1,3-11.73,12.93,12.93,0,0,1,4.06-5.45q7.28-5.34,14.52-10.72l7.46-5.51c6.3-4.65,16-4.23,21.55.95a23.4,23.4,0,0,1,4.23,5.53c6,10.52,9.52,20.55,10.62,30.67.58,5.29.09,9.46-1.54,13.12A11.82,11.82,0,0,1,318,63.57a10.81,10.81,0,0,1-8.43-.51,22.43,22.43,0,0,1-7.72-5.81c-6.47-7.42-10.2-16.92-11.41-29-.31-3.11-.34-6.31-.37-9.4,0-1.69,0-3.39-.09-5.08,0-.16-.08-1.61-.89-2.1a2.52,2.52,0,0,0-2.28.31c-2.21,1.4-4.72,3-7.06,4.73a4.28,4.28,0,0,0-1.39,2.73,62.8,62.8,0,0,0,.87,19.81c1.84,9.62,5.48,17.45,11.15,23.93,1.31,1.5,2.63,3,3.92,4.44l.29.33a.94.94,0,0,1-.41,1.51,53.24,53.24,0,0,1-10.08,1.82l-.72.08.27.67c.15.38.27.73.38,1a6.26,6.26,0,0,0,.75,1.65,372.69,372.69,0,0,1,21.87,34.05,314.34,314.34,0,0,1,23.2,48.78c1.72,4.72,3.23,9.61,4.68,14.35.83,2.7,1.66,5.4,2.53,8.08a4.53,4.53,0,0,0,1,1.54c.16.19.32.37.47.57l.35.47.45-.38c.17-.14.36-.28.54-.41a4.64,4.64,0,0,0,1.25-1.17c.63-1,1.22-2,1.79-2.92s1.12-1.9,1.72-2.82l.14-.22a15.66,15.66,0,0,1,2.53-3.23c5-4.4,11-5.63,17.76-3.66,8.84,2.59,17.3,7.09,25.87,13.77a34.53,34.53,0,0,1,9.62,10.75c2,3.67,2.22,7.12.7,10.54a48.2,48.2,0,0,1-2.77,5.35c.3-.58.59-1.18.85-1.79a2.61,2.61,0,0,0,.21-2.39c-.42-.63-1.28-.77-2.45-.78-.61,0-1.21,0-1.82,0a40.06,40.06,0,0,1-6.3-.29c-6.58-1-12.32-4.34-16.59-7.12a105.5,105.5,0,0,1-20-17.3c-.54-.59-1.06-1.2-1.66-1.9l-1-1.17-.46-.54-.41.58c-.25.36-.48.65-.68.91a5.77,5.77,0,0,0-.91,1.43c-.26.66-.47,1.34-.67,2a19.71,19.71,0,0,1-.79,2.28,4.15,4.15,0,0,0,.55,4.37c.67.94,1.33,1.89,2,2.84,1.55,2.22,3.14,4.53,4.9,6.65a50,50,0,0,0,21,15c2.52,1,5.16,1.7,7.7,2.42l.15,0c.13,1.28.05.46.18,1.73-12.82,6.78-25.87,7.57-38.8,2.35A65.3,65.3,0,0,1,319,199.91c-.1-.11-.19-.23-.29-.35-.51-.64-1.46-1.84-2.87-.87-1.57,1.08-.65,2.46-.15,3.2.08.12.16.24.23.36,6.08,10.08,13,17.77,21.24,23.49a40.83,40.83,0,0,0,31.51,7c2.33-.41,4.58-1,7-1.65l2.72-.72a.92.92,0,0,1,.77.14l.83.58c1.19.83,2.43,1.68,3.6,2.63.93.74,2.1,1.44,3.42.88a.91.91,0,0,1,1.11.36l.73,1.11,3.11,4.71c5.21,7.79,11.07,15.89,18.6,22.41,8.43,7.3,17.13,10.86,26.56,10.86.6,0,1.21,0,1.82,0,9.93-.47,17.7-4.41,23.77-12,4.06-5.1,6.89-11,9.66-17l.19-.41c3.4-7.44,6.92-15.14,12.51-21.47,7.32-8.3,14.88-14.32,23.09-18.41,12.75-6.35,26.87-9.51,43.16-9.65,23.6-.21,47.59-.18,70.8-.14q14.11,0,28.23,0H846.55l.55.06c.69,0,52.11,1.07,119.39,1.61,0-.1,0-.2,0-.3,48.52.53,87.77,3.25,114.5,8,5.34,1,9.91,1.92,13.8,2.9a.93.93,0,0,1,.69,1c-.05.31-.09.62-.13.93v.13c0,.27-.31,6.67,4.21,10.67a13.07,13.07,0,0,0,9,3,24.8,24.8,0,0,0,4.39-.42c4.46-.8,7-3,6.69-6-.36-3.91-6-8-18.5-11.71a.94.94,0,0,1-.64-1.17c5-15.89,21.66-25,40.48-32.48a.94.94,0,0,1,.86.09,123.92,123.92,0,0,0,22.68,11.69l.13.06c2.61,1.5,23.63,12,94.19,8.15v-.16c12.24-1.17,22-2.56,28.25-4.21,15.93-4.17,29.83-9.59,41.34-16.11a.91.91,0,0,1,1,.07,187.77,187.77,0,0,0,20.83,13.84c25.75,14.87,76.32,10.22,135.77-.37v-3.91C1427,190.8,1377,195.54,1352.16,181.19ZM382.32,228.33l.56-.32,1.26,1.62Zm3.12-10.47c-2.4,2.12-2.56,2.45-1.37,5.1l-.21.19h0c-.19-.21-.34-.41-.48-.58-1.24-1.51-1.73-1.56-4.43-.39-.62.27-1.26.52-1.89.77l-1.31.53c-1,.42-1.95.92-2.09,1.76a1.63,1.63,0,0,0,.33,1.2.91.91,0,0,1-.49,1.37c-15.8,5.17-31.41.35-43.59-13.44q.93.63,1.89,1.23c10.53,6.65,21,9.49,31.95,8.7a50.46,50.46,0,0,0,22.92-7.52Zm-30.16-25.07c-1.65-2-3.13-4.06-4.56-6.11-.51-.73-1-1.45-1.52-2.16a.92.92,0,0,1-.13-.82l.77-2.43,0,0c.43.41.82.79,1.19,1.18a105.4,105.4,0,0,0,20.71,17.27c6.58,4.06,12.38,6.31,18.25,7.07,1.21.16,2.45.21,3.76.27l1.07,0L392.12,211a1,1,0,0,1-1.35.18,3.43,3.43,0,0,0-1.81-.49C375.75,209.61,364.41,203.6,355.28,192.79Zm760.5,24c.05.5-1,1.41-3.53,1.86-4.52.81-7.92.24-10.11-1.68-2.87-2.52-3-6.77-2.94-7.49a.41.41,0,0,1,0-.11h0a.92.92,0,0,1,1.19-.76C1112.32,212.21,1115.66,215.52,1115.78,216.82Zm48.77-121.88a1,1,0,0,1,1.39.61,12,12,0,0,1,.2,1.32.56.56,0,0,1,0,.18c-.19,3.31-1.22,4.57-1.82,4.8a1,1,0,0,1-1-.37c-.78-.82-1.3-2.71-.26-5.29a.72.72,0,0,1,.14-.24A5.8,5.8,0,0,1,1164.55,94.94Zm-23,71.37a88.66,88.66,0,0,1-19.18-17.49v0h0c-7.81-9.9-13-22.22-11.19-37,3.57-29.24,23.51-31.82,30.37-31.82h.5c9.12.17,17.33,4.28,21.44,10.05a.93.93,0,0,1-.31,1.37,7.91,7.91,0,0,0-3.55,3.13c-1.89,4.44-.76,7.9.93,9.66a4.77,4.77,0,0,0,5.17,1.31c1.5-.56,4.05-2.41,4.32-8.45v-.24a16.92,16.92,0,0,0-.48-2.83.94.94,0,0,1,.66-1.16,27.81,27.81,0,0,1,13-.59c21.93,4.77,22.64,31.5,22.66,33a.6.6,0,0,1,0,.13c-2,18.82-25.42,27.28-50,36.19-4.48,1.62-9,3.25-13.42,5A.91.91,0,0,1,1141.54,166.31Zm187.3-1.09c-19-15.62-30.07-33.56-29.69-48.13.19-7.55,3.52-13.53,9.14-16.4a18.28,18.28,0,0,1,8.4-1.91c6.11,0,13,2.5,19.92,7.25,13.59,9.31,19.79,19.85,17.94,30.49-1.75,10-10.25,20-24.62,28.78A.93.93,0,0,1,1328.84,165.22Z"
          />
          <path
            class="cls-2"
            d="M1205.87,125.13a.6.6,0,0,1,0,.13c-2,18.82-25.42,27.28-50,36.19-4.48,1.62-9,3.25-13.42,5a.91.91,0,0,1-.86-.1,88.66,88.66,0,0,1-19.18-17.49v0h0c-7.81-9.9-13-22.22-11.19-37,3.57-29.24,23.51-31.82,30.37-31.82h.5c9.12.17,17.33,4.28,21.44,10.05a.93.93,0,0,1-.31,1.37,7.91,7.91,0,0,0-3.55,3.13c-1.89,4.44-.76,7.9.93,9.66a4.77,4.77,0,0,0,5.17,1.31c1.5-.56,4.05-2.41,4.32-8.45v-.24a16.92,16.92,0,0,0-.48-2.83.94.94,0,0,1,.66-1.16,27.81,27.81,0,0,1,13-.59C1205.14,97,1205.85,123.68,1205.87,125.13Z"
          />
        </g>
      </svg>