<?xml version="1.0" encoding="utf-8"?>
<!-- Generator: Adobe Illustrator 25.3.1, SVG Export Plug-In . SVG Version: 6.00 Build 0)  -->
<svg version="1.1" id="Camada_1" xmlns="http://www.w3.org/2000/svg" xmlns:xlink="http://www.w3.org/1999/xlink" x="0px" y="0px"
	 viewBox="0 0 477.39 92.24" style="enable-background:new 0 0 477.39 92.24;" xml:space="preserve">
<style type="text/css">
	.st0{fill:#127E7B;}
</style>
<g>
	<path class="st0" d="M407.91,7.31h-298.6c-0.12,0-11.52,0.12-15.28,0c-0.94-0.03-1.94-0.08-2.97-0.13
		c-5.71-0.28-13.2-0.64-18.68,2.29c-3.15-1.34-14.41-3.44-23.67-1.1C31.83,12.4,19.24,27.6,19.24,45.71
		c0,21.17,17.22,38.39,38.39,38.39h350.28c6.48,0,12.89-1.65,18.54-4.76c5.31-2.93,9.9-7.14,13.3-12.16
		c4.29-6.35,6.56-13.77,6.56-21.47C446.31,24.54,429.08,7.31,407.91,7.31z M69.71,20.67c0.43-2.71,1.46-4.66,2.99-6.04
		c0.7,0.47,1.31,0.99,1.82,1.58c1.83,2.09,2.42,4.95,1.83,8.73c-0.22,1.37-1.38,1.96-1.87,2.15c-1.19,0.46-2.55,0.28-3.46-0.46
		C69.73,25.58,69.27,23.47,69.71,20.67z M436.1,64.71c-3.01,4.45-7.08,8.18-11.78,10.77c-4.99,2.76-10.67,4.21-16.41,4.21H57.63
		c-18.74,0-33.99-15.25-33.99-33.99c0-18.74,15.25-33.99,33.99-33.99h0.05c4.29-0.09,7.86,0.25,10.7,1.03
		c-1.46,1.81-2.52,4.16-3.01,7.23c-0.95,5.96,1.4,8.87,2.88,10.07c2.14,1.74,5.14,2.18,7.81,1.15c2.51-0.96,4.24-3.05,4.64-5.57
		c0.8-5.08-0.16-9.22-2.86-12.31c-0.29-0.33-0.59-0.64-0.91-0.94c3.69-1.1,8.51-1.04,13.92-0.78c1.06,0.05,2.08,0.1,3.05,0.13
		c3.84,0.12,14.99,0,15.43,0h298.58c18.74,0,33.99,15.25,33.99,33.99C441.9,52.52,439.9,59.09,436.1,64.71z"/>
</g>
</svg>
