<?xml version="1.0" encoding="utf-8"?>
<!-- Generator: Adobe Illustrator 25.3.1, SVG Export Plug-In . SVG Version: 6.00 Build 0)  -->
<svg version="1.1" id="Camada_1" xmlns="http://www.w3.org/2000/svg" xmlns:xlink="http://www.w3.org/1999/xlink" x="0px" y="0px"
	 viewBox="0 0 477.39 138.8" style="enable-background:new 0 0 477.39 138.8;" xml:space="preserve">
<style type="text/css">
	.st0{fill:#127E7B;}
</style>
<g>
	<path class="st0" d="M407.97,47.55L407.97,47.55c-6.49-0.16-11.81-1.13-15.93-2.89c3.7-2.71,5.31-6.14,6.87-10.2
		c3.5-9.16,0.38-14.1-1.8-16.23c-3.29-3.22-8.51-4.16-12.98-2.34c-4.1,1.67-6.61,5.35-6.71,9.83c0,0.17-0.02,0.41-0.05,0.7
		c-0.22,2.86-0.79,10.46,4.86,16.71c0.29,0.31,0.58,0.62,0.89,0.92c-7.11,2.22-19.15,3.51-40.45,3.51H57.63
		c-1.22,0-2.2,0.99-2.2,2.2c0,1.22,0.99,2.2,2.2,2.2h285.03c24.09,0,37.13-1.64,44.69-4.74c5.05,2.94,11.92,4.52,20.51,4.74l0.05,0
		c18.74,0,33.99,15.25,33.99,33.99c0,6.81-2.01,13.38-5.8,19c-3.01,4.45-7.08,8.18-11.78,10.77c-4.99,2.76-10.67,4.21-16.41,4.21
		H57.7l-4.06-0.24c-3.49-0.41-6.87-1.34-10.08-2.8c-3.44-1.57-6.58-3.69-9.33-6.3c-6.83-6.49-10.59-15.24-10.59-24.65
		c0-8.66,3.25-16.9,9.16-23.22c0.83-0.89,0.79-2.28-0.1-3.11c-0.89-0.83-2.28-0.79-3.11,0.1c-6.68,7.14-10.35,16.45-10.35,26.23
		c0,10.63,4.25,20.52,11.96,27.84c3.11,2.95,6.65,5.34,10.54,7.11c2.32,1.06,4.72,1.86,7.18,2.43c0,0,5.58,1.02,8.97,1h350.03
		c6.48,0,12.89-1.65,18.54-4.76c5.3-2.93,9.9-7.13,13.3-12.16c4.29-6.35,6.56-13.77,6.56-21.47
		C446.31,64.8,429.12,47.59,407.97,47.55z M387.68,42.17c-0.81-0.61-1.54-1.28-2.18-1.99c-4.38-4.85-3.93-10.86-3.73-13.42
		c0.03-0.39,0.05-0.7,0.06-0.93c0.08-3.72,2.52-5.26,3.96-5.85c0.97-0.4,2.01-0.59,3.04-0.59c1.96,0,3.87,0.7,5.2,2
		c2.42,2.37,2.7,6.46,0.77,11.51C393.41,36.5,392.2,39.69,387.68,42.17z"/>
</g>
</svg>
