<?xml version="1.0" encoding="utf-8"?>
<!-- Generator: Adobe Illustrator 25.3.1, SVG Export Plug-In . SVG Version: 6.00 Build 0)  -->
<svg version="1.1" id="Camada_1" xmlns="http://www.w3.org/2000/svg" xmlns:xlink="http://www.w3.org/1999/xlink" x="0px" y="0px"
	 viewBox="0 0 477.39 221.22" style="enable-background:new 0 0 477.39 221.22;" xml:space="preserve">
<style type="text/css">
	.st0{fill:#127E7B;}
</style>
<path class="st0" d="M418.32,8.11H47.22c-15.43,0-27.98,12.55-27.98,27.98v71.57v2.18v58.58c0,15.43,12.55,27.98,27.98,27.98h371.11
	c15.43,0,27.98-12.55,27.98-27.98V96.85v-2.18V36.09C446.31,20.66,433.75,8.11,418.32,8.11z M441.9,168.42
	c0,13-10.58,23.58-23.58,23.58H47.22c-13,0-23.58-10.58-23.58-23.58v-60.85h0V36.09c0-13,10.58-23.58,23.58-23.58h371.11
	c13,0,23.58,10.58,23.58,23.58v60.85l0,0V168.42z"/>
</svg>
