<svg id="Camada_1" data-name="Camada 1" xmlns="http://www.w3.org/2000/svg" viewBox="0 0 283.52 117.31"><defs><style>.cls-1{fill:#127e7b;}</style></defs><path class="cls-1" d="M283.16,105.49c-.66-3.77-1.43-8.15-2.29-12.47-3.42-17.07-7.36-34.54-11.7-51.92a139.07,139.07,0,0,0-3.92-13.61,38.09,38.09,0,0,0-1.88-4.37,9.42,9.42,0,0,0-1.72-2.28,3.87,3.87,0,0,0-1.8-1,2.09,2.09,0,0,0-1.67.28,2.15,2.15,0,0,0-.87,1.54,5.58,5.58,0,0,0,0,1.58l.29,1.79c.31,1.88.62,3.82,1,5.72q3.51,16,7.05,32.05l3.69,16.71q2.46,11.15,4.88,22.29a41.24,41.24,0,0,1,.7,4.6c.13,1.23-.09,1.52-1.27,1.76a22.59,22.59,0,0,1-3.33.39c-3.68.11-6.75.2-9.94.19l-2.51,0c-6.29,0-12.79-.06-19.2-.21l.24,0,.59-.06a1.67,1.67,0,0,0,.46-3.29,14.13,14.13,0,0,0-1.82-.71c2.83.48,5.47.85,8,1.11,2.07.21,4.15.37,6.23.54l3,.25a115.86,115.86,0,0,0,11.81.22,9,9,0,0,0,1.89-.27,3.25,3.25,0,0,0,2.61-3,10.46,10.46,0,0,0,.06-2.47l-.09-.72c-.24-2.07-.5-4.21-.91-6.3-1.34-6.78-2.73-13.58-4.14-20.22-2.13-10-5-23.26-8.32-36.54a118,118,0,0,0-3.27-11.35,26.9,26.9,0,0,0-3.44-6.5,10,10,0,0,0-6.76-4.2,16.64,16.64,0,0,0-5.2-.11c-3.31.5-6.84,1.05-11.45,1.79a61,61,0,0,1-12,1,25.49,25.49,0,0,1-4.74-.66A29.75,29.75,0,0,1,203,13.53c-1.52-.9-3-1.87-4.51-2.81l-2.38-1.51-1.52-1c-1.36-.86-2.77-1.76-4.2-2.56a40.53,40.53,0,0,0-16-5,46.91,46.91,0,0,0-15.26,1.09,40.69,40.69,0,0,0-9.49,3.33A9.62,9.62,0,0,0,145.38,9l-.08.14a.47.47,0,0,1-.05.1c-.19-.2-.38-.41-.56-.63a21.29,21.29,0,0,0-8.26-6.12A30.5,30.5,0,0,0,127.54.27a51.93,51.93,0,0,0-9.68-.09,65.37,65.37,0,0,0-17.26,3.6c-1.84.66-3.68,1.37-5.47,2.06L93,6.67A50.53,50.53,0,0,1,77.44,10c-3,.15-6.07.23-9,.3l-3.62.09-4.42.12c-3,.07-6.11.15-9.16.27a37.8,37.8,0,0,0-9,1.49,17.8,17.8,0,0,0-5.57,2.53,12.32,12.32,0,0,0-2.05,1.94,2,2,0,0,0-.36,2.41,2.38,2.38,0,0,0,2.31,1.1,2.54,2.54,0,0,0,.58-.08l.21-.05a9.24,9.24,0,0,0,3.19-1.24l.91-.55c.42-.26.83-.51,1.25-.75a.69.69,0,0,1,.19,0,14.69,14.69,0,0,1-.4,2.46l-.7,2.84c-.81,3.27-1.66,6.65-2.54,10q-2.34,8.79-4.7,17.56Q30.83,64,27.22,77.57l-.07.28A89.32,89.32,0,0,0,24,93.44a12.71,12.71,0,0,1-2.94,2.14,9.93,9.93,0,0,1-2.38.94,2.27,2.27,0,0,1-1.75-.2A2.23,2.23,0,0,1,16,94.87a9.1,9.1,0,0,1-.19-2.72,42,42,0,0,1,.72-4.76A113.47,113.47,0,0,1,19.8,75.76Q21.89,69.39,24,63q2.43-7.38,4.83-14.78c1.73-5.32,3.69-11.52,5.08-17.79a29.7,29.7,0,0,0,.9-7.1,7,7,0,0,0-.63-3,3,3,0,0,0-1.86-1.65,3,3,0,0,0-2.5.45A4.09,4.09,0,0,0,28.27,21c-.51,1.17-.89,2.15-1.2,3.07-.89,2.64-1.76,5.28-2.63,7.92L22.1,39,17.93,51.48Q13.68,64.13,9.48,76.8a123,123,0,0,0-4,14.73,26.07,26.07,0,0,0-.58,7.15,7.39,7.39,0,0,0,4.94,6.77,9.81,9.81,0,0,0,1.81.58l1.11.21c1.4.26,2.85.54,4.29.66,3.54.3,7.35.59,11.24.7,5.41.15,11.21.23,17.76.24,3.43,0,6.93-.09,10.71-.3,2.45-.13,4.94-.33,7.35-.52,1.52-.13,3-.25,4.57-.36q6.87-.48,13.73-.91a187.18,187.18,0,0,1,22.93.28c3.34.21,6.94.51,11.34,1,2.91.3,6.1.69,10,1.24a79.59,79.59,0,0,1,11.94,2.6,11,11,0,0,0,7.94-.49c.91-.42,1.84-.81,2.76-1.2l1.38-.6a40.08,40.08,0,0,1,9.2-2.87l.41-.08a6.3,6.3,0,0,1,1.47-.16v.37c0,.55,0,1.07,0,1.58a3.7,3.7,0,0,0,.13,1.12,2.52,2.52,0,0,1,.11,1H162c-.27,0-.55.09-.82.12l-2.68.24c-1.78.17-3.63.33-5.44.56a29.06,29.06,0,0,0-10.18,3c-.74.39-1.55.72-2.26,1a3.65,3.65,0,0,1-2.81,0c-.84-.33-1.67-.67-2.5-1a26.49,26.49,0,0,0-6.85-2.13c-2.13-.29-3.87-.46-5.44-.52-4.25-.18-8.56.06-12.71.28l-2.72.15c-1.72.09-3.42.21-5.13.34l-.31,0-4.94.38-7.15.54q-6.41.46-12.83.87l-3.52.22c-4,.26-8.13.52-12.19.67-7.3.28-15.13.49-23,.14a145.77,145.77,0,0,1-19-1.87,43.59,43.59,0,0,1-9-2.43,16.56,16.56,0,0,1-4.42-2.51,9,9,0,0,1-3.29-5.47,17.74,17.74,0,0,1-.11-6c.19-1.36.47-2.73.74-4,.14-.66.27-1.32.4-2,.07-.37.12-.73.18-1.11l.14-.89-.62-.27A3.94,3.94,0,0,0,3,87.69a2.39,2.39,0,0,0-.53,0H1.85l-.09.39c-.1.45-.21.9-.32,1.35-.24,1-.49,2-.7,3a28.21,28.21,0,0,0-.55,9.34,11.75,11.75,0,0,0,4,7.51,15.54,15.54,0,0,0,1.26,1c1,.51,2,1,2.94,1.63.72.43,1.46.88,2.21,1.26l1.08.1c1,.32,2,.63,3.17.91a102.78,102.78,0,0,0,17.44,2.5c4.74.34,9.94.5,16.33.47s13.31-.25,20.3-.68l5.44-.32c3.13-.18,6.26-.36,9.39-.58,4.22-.28,8.44-.6,12.66-.91l7-.52c1.19-.09,2.38-.16,3.57-.24l2.75-.18c4.67-.32,9.41-.42,14.07-.3a27,27,0,0,1,10.33,2.34c1,.46,1.89.81,2.71,1.11a6.6,6.6,0,0,0,5-.1c.94-.4,1.83-.81,2.66-1.23a24.82,24.82,0,0,1,6.2-2.11,86.38,86.38,0,0,1,11.06-1.3l.52-.07c.35,0,.71-.06,1.07-.08.77,0,1.55-.06,2.33-.07h1.75c1.18-.07,2.36-.13,3.54-.15,11.68-.18,24,.12,37.61.93q11.74.69,23.49,1.47,7,.45,14,.93l4.41.3,2.61.18c1.18.08,2.36.17,3.54.24l1.63.11c4.33.27,8.67.54,13,.78,1.39.08,2.83.08,4.4,0a19.55,19.55,0,0,0,3.31-.41,5.31,5.31,0,0,0,4.49-5.08A20.66,20.66,0,0,0,283.16,105.49ZM41.1,15.54c-.21.12-.43.25-.65.36l-.73.38c-.8.42-1.61.84-2.43,1.23l.05-.05a11.05,11.05,0,0,1,3.11-1.85c.63-.26,1.26-.5,1.91-.72A11.53,11.53,0,0,0,41.1,15.54ZM147.15,11.2a6.36,6.36,0,0,1,2.76-3.28,31.72,31.72,0,0,1,3.52-1.72,46.06,46.06,0,0,1,12.32-3A39.22,39.22,0,0,1,184,5.52a42.18,42.18,0,0,1,8,4.06l3.11,2,2.65,1.74a61.71,61.71,0,0,0,7.46,4.21,31.09,31.09,0,0,0,16,2.65c4-.32,8-1,11.91-1.69l3-.5a34.27,34.27,0,0,1,7.09-.58,9.36,9.36,0,0,1,3.5.82,7.38,7.38,0,0,1,3,2.65,24.87,24.87,0,0,1,3.11,6c1.21,3.42,2.14,6.9,3.17,11.08,2.75,11.15,5.5,23.27,8.41,37,1.48,7,2.94,14.32,4.11,20.2.37,1.86.63,3.73.8,5.15a10.86,10.86,0,0,1,0,2.42c-.08.81-.34,1.06-1.19,1.17a18.07,18.07,0,0,1-2.62.18L263,104c-3.28-.09-6.68-.18-10-.41-3.61-.24-7.22-.68-10.58-1.12a150.3,150.3,0,0,1-20.1-4.23c-5.77-1.56-11.54-3.45-17.12-5.28l-3.76-1.24c-5.2-1.69-10.75-3.45-16.38-4.7a57.42,57.42,0,0,0-12.47-1.44c-1.3,0-2.58,0-3.86.15a29.68,29.68,0,0,0-7.55,1.54A18.91,18.91,0,0,0,153.72,92c-.26.27-.53.52-.87.84v0a11.79,11.79,0,0,1-.21-1.32c-.17-2.14-.34-4.41-.44-6.67-.76-16.31-1-32.48-1.16-46.14,0-4-.16-8.83-.67-13.61a36.73,36.73,0,0,0-3.18-12.56A1.44,1.44,0,0,1,147.15,11.2ZM26.94,90.36l0-.23.29-1.46c.37-1.84.75-3.75,1.23-5.58,2.58-10,5.3-20.35,8.3-31.68q1.94-7.29,3.89-14.57Q42.37,30.67,44,24.5c.4-1.53.77-3.16,1.11-5a12.8,12.8,0,0,0,.23-2.81A2.1,2.1,0,0,0,44.54,15a2,2,0,0,0-1.61-.25,30.65,30.65,0,0,1,6.49-1.19c2.58-.21,5.38-.35,8.83-.44C61,13,63.8,13,66.57,12.91c2.54-.05,5.07-.09,7.61-.16a68.07,68.07,0,0,0,9.61-.9A58.15,58.15,0,0,0,95.17,8.58L96.75,8c2.68-1,5.44-2.12,8.25-2.91a62.67,62.67,0,0,1,20.41-2.4,29.4,29.4,0,0,1,9.87,2.13,18.25,18.25,0,0,1,8.19,6.47,2.15,2.15,0,0,1,.44,1.94,61.72,61.72,0,0,0-1.31,9.94c-.61,8.35-1,17.12-1.19,26.06s-.36,19.16-.49,29.51c0,2.06,0,4.15.09,6.17,0,1,.06,2.06.08,3.08,0,.39,0,.77,0,1.18v.05a2.6,2.6,0,0,1-.67-.33l-.37-.22a28.57,28.57,0,0,0-8.87-3,33.82,33.82,0,0,0-9.7,0A101.26,101.26,0,0,0,110,88l-1.8.45a173,173,0,0,1-17.83,3.68c-4.18.57-8.45,1-12.58,1.44l-1.61.17c-4.95.52-10,.69-14.92.87h-.4a108.52,108.52,0,0,1-16.56-.58,27.3,27.3,0,0,1-9.35-2.65c-.72-.37-1.46-.68-2-.92a6.18,6.18,0,0,0-2.36-.5,5.6,5.6,0,0,0-3,.87l-.75.44A3.12,3.12,0,0,1,26.94,90.36ZM148.5,106.73l-1.35.59-.86.36-1,.41a7.92,7.92,0,0,1-5.66.35c-1.47-.44-3-.81-4.47-1.17l-.81-.19A98.39,98.39,0,0,0,121.83,105c-3.77-.42-8.73-.95-13.71-1.33-5.79-.45-11.08-.67-16.06-.67-1.13,0-2.25,0-3.35,0-4,.08-8.29.26-13.4.56-2.39.14-4.81.36-7.15.56l-3.69.32-.47,0c-1.73.14-3.53.29-5.3.38a280.63,280.63,0,0,1-28.19.2L28.37,105c-2.74-.12-5.56-.25-8.34-.42a38,38,0,0,1-7.6-1,13.76,13.76,0,0,1-2.14-.74A4.55,4.55,0,0,1,7.6,99.34a11.79,11.79,0,0,1-.14-3.63,63.89,63.89,0,0,1,2.2-10.54C11.83,77.37,14.45,69.56,17,62l.55-1.63q5.55-16.53,11.13-33l.72-2.11a30.17,30.17,0,0,1,1.08-2.83,4,4,0,0,1,.84-1.15.26.26,0,0,1,.24-.08.2.2,0,0,1,.17.13,3.49,3.49,0,0,1,.4,1.33V23a27.61,27.61,0,0,1-.2,4.07,88.7,88.7,0,0,1-3.28,13.07c-2.21,6.93-4.5,14-6.71,20.76l-3,9.17c-1.55,4.75-3.16,9.66-4.38,14.61-.49,2-.87,3.9-1.15,5.72a20.91,20.91,0,0,0-.12,3.7,6.77,6.77,0,0,0,.46,2.09A4.3,4.3,0,0,0,18,99.12a7.81,7.81,0,0,0,4.22-1.21c.75-.45,1.48-.94,2.24-1.46l.9-.6a5.45,5.45,0,0,0,2.95-.67,3.41,3.41,0,0,1,3.21,0l.69.32c.53.24,1.06.48,1.57.76a38.21,38.21,0,0,0,14,4.15,121.87,121.87,0,0,0,20.52.67,152.63,152.63,0,0,0,15.71-1.6c6.82-1,13.7-2.31,20.35-3.56l8-1.49a97.92,97.92,0,0,1,10.16-1.4,17.14,17.14,0,0,1,12.37,3.6c.86.68,1.63,1.3,2.33,1.95a32,32,0,0,0-6.39-2.46,29.3,29.3,0,0,0-6-.93,63.86,63.86,0,0,0-15.07,1.07,20.26,20.26,0,0,0-2.16.52,4.79,4.79,0,0,0-1.27.61,1.64,1.64,0,0,0-.72,1.39,1.54,1.54,0,0,0,.78,1.27,6.55,6.55,0,0,0,1.82.71c1.32.28,2.71.52,4.13.72,2.63.38,5.27.71,7.9,1A61.75,61.75,0,0,1,132,105.33c1.65.56,3.43,1.09,5.74,1.73a18.5,18.5,0,0,0,10.63-.33l.43-.15Zm-.27-2.64a16.91,16.91,0,0,1-10.38.37c-1.56-.44-3.18-.94-4.81-1.5a69,69,0,0,0-13.67-3.11c-2-.25-4.09-.53-6.13-.8l-2-.28q-.3,0-.6-.09a67.88,67.88,0,0,1,11.56-1,39.52,39.52,0,0,1,5.35.41,27.12,27.12,0,0,1,9.66,3.43l.6.34c.75.43,1.5.85,2.26,1.25a5.73,5.73,0,0,0,1.51.51,1.38,1.38,0,0,0,1.29-.53,1.34,1.34,0,0,0,.21-1.34,7.12,7.12,0,0,0-1-1.66,32.16,32.16,0,0,0-6.11-5.81,19.37,19.37,0,0,0-12-3.84,68.84,68.84,0,0,0-10.86,1.27Q106.51,92.88,100,94.1q-5.37,1-10.73,2a171,171,0,0,1-17.89,2.3,115.35,115.35,0,0,1-24.48-.64,36.33,36.33,0,0,1-9.53-2.55,30.42,30.42,0,0,0,4,1,61.84,61.84,0,0,0,9.25,1c6.09.16,11.67.09,17.06-.22,6.17-.35,11.84-.83,17.35-1.47a170.85,170.85,0,0,0,20.18-3.62l1.47-.35c4-1,8-1.94,12.08-2.82a32,32,0,0,1,11.52-.58,27.28,27.28,0,0,1,10.28,3.75,1.77,1.77,0,0,1,.93,1.51c.1,1,.24,2.42.51,3.81a6.84,6.84,0,0,0,.81,2.18,2.82,2.82,0,0,0,2.37,1.47,3,3,0,0,0,2.49-1.39A3.72,3.72,0,0,0,148,96,7.87,7.87,0,0,0,146,93c-.5-.5-1-1-1.56-1.48l-.59-.54,0-.1a4.86,4.86,0,0,1-.07-.55l-.07-1.64c-.07-1.47-.14-3-.16-4.49-.13-12.14.06-25.29.59-40.18.28-8,.57-15.31,1.21-22.76l0-.28a43,43,0,0,1,.59-4.78,30.08,30.08,0,0,1,1.39,5.58,95.41,95.41,0,0,1,1.06,13.63l.09,5.71c.22,13.51.44,27.47,1,41.2.11,2.72.28,5.47.42,7.79.06.88.16,1.81.34,2.92a8.4,8.4,0,0,0,.47,1.86,1.78,1.78,0,0,0,3,.76,18.2,18.2,0,0,0,1.48-1.43l.24-.25a16.69,16.69,0,0,1,7.27-4.45,31.66,31.66,0,0,1,8.43-1.34,56.54,56.54,0,0,1,15.8,2c5.77,1.44,11.36,3.29,16.76,5.07,7.87,2.6,15.6,5.09,23.57,7-6.31-1.25-12-2.56-17.22-4l-1.11-.3c-5.71-1.54-11.62-3.14-17.54-4.34a60.21,60.21,0,0,0-13-1.39,31,31,0,0,0-11.11,2.25,67,67,0,0,0-7.82,3.92l-2,1.16c-1.15.67-2.31,1.33-3.47,2A37.27,37.27,0,0,1,148.23,104.09Zm-4.09-9.21a3.67,3.67,0,0,1,1.45,2.38,1.83,1.83,0,0,1-.07.53c-.1.31-.25.33-.33.33s-.22,0-.33-.22A8.17,8.17,0,0,1,144.14,94.88ZM163.31,102a1.57,1.57,0,0,1-1.37.81A37.56,37.56,0,0,0,152.8,105c1-.48,2-1,3.1-1.63l2.81-1.61c.89-.52,1.79-1,2.68-1.54a55.12,55.12,0,0,1,7.25-3.55,30,30,0,0,1,13.65-1.82A97.61,97.61,0,0,1,198,97.72c3.16.81,6.33,1.64,9.49,2.47l6.44,1.68c5,1.3,10.08,2.33,16,3.43-2-.28-4.09-.57-6.12-.89-7.7-1.2-15.32-3.06-23.11-5a103.39,103.39,0,0,0-17.55-3c-1.32-.1-2.6-.16-3.83-.16a35.14,35.14,0,0,0-7.67.79,23.16,23.16,0,0,0-3.86,1.23A9,9,0,0,0,163.31,102Zm70.14,6.37c-3.68-.16-7.37-.42-11-.66l-1.8-.13c-3.08-.21-6.44-.52-10.25-.94-3-.34-6.11-.74-9.09-1.11l-4.2-.53-3.43-.43c-3.23-.4-6.46-.81-9.69-1.19a118.92,118.92,0,0,0-12-.94l-1.93,0h-3.91a.7.7,0,0,1,.13-.16A7.74,7.74,0,0,1,169,100.5a17.75,17.75,0,0,1,4.05-1.15,43.35,43.35,0,0,1,11.79-.22,100.14,100.14,0,0,1,14.88,2.66c7.4,1.87,16,4,24.8,5.35C227.32,107.57,230.36,108.05,233.45,108.37ZM277.34,114a20,20,0,0,1-3,.15c-2.79-.08-5.68-.19-8.85-.34-1.63-.08-3.26-.19-4.89-.31l-20.4-1.35-6.86-.47c-5-.34-10-.69-15-1-6.82-.41-13.54-.74-21-1.1-5.79-.28-11.78-.42-18.32-.42-4,0-8.19,0-12.68.16-.47,0-.95,0-1.39,0l-.1,0h0a6.12,6.12,0,0,1-.19-4l.14,0c.27-.06.52-.11.77-.14a73,73,0,0,1,12.22.25c5.29.44,10.65,1.14,15.83,1.81,2.14.29,4.29.57,6.43.83,5.86.72,12.79,1.54,19.82,2.15,4.16.37,8.41.56,12.51.74l3,.14c9.53.45,19.21.37,28.57.3l3,0c1.84,0,3.66-.14,5.82-.32a10.62,10.62,0,0,0,2.58-.59,3.16,3.16,0,0,0,2.21-3.06,19.8,19.8,0,0,0-.56-5c-1.45-6.8-3-13.8-4.65-21.4Q270,70.32,267.67,59.72q-3.14-14.22-6.28-28.44c-.39-1.77-.72-3.58-1-5.34-.13-.7-.26-1.41-.41-2.19a3.49,3.49,0,0,1-.09-1.06l0,0,.31.4A10.3,10.3,0,0,1,261.46,25a43.88,43.88,0,0,1,1.82,4.66c1.88,5.7,3.31,11.57,4.69,17.24C271.42,61,274.79,76,278,91.54c.82,4,1.62,8.21,2.5,13.33A32.75,32.75,0,0,1,281,110C281,112.64,280,113.69,277.34,114Z"/></svg>