<svg id="Camada_1" data-name="Camada 1" xmlns="http://www.w3.org/2000/svg" viewBox="0 0 278.84 209.03"><defs><style>.cls-1{fill:#127e7b;}</style></defs><path class="cls-1" d="M249.7,183.26l.2-.07,1.29-.18a3.74,3.74,0,0,0,2.16-1l.5-.14,0,0a.16.16,0,0,1,0-.06l0-.06.16-.45a2.54,2.54,0,0,0,.23-.92l0,.22c0-.1,0-.21,0-.31s0-.31,0-.46a1.69,1.69,0,0,1,0-.23h0c.13-1.34.19-2.77.19-4.37,0-.47,0-.54.37-.68a9.57,9.57,0,0,0,5.23-5.24,20.4,20.4,0,0,0,1-2.78c.56-2.09,1.1-4.19,1.64-6.29.27-1.08.55-2.16.83-3.24,1.66-6.38,3.84-12.71,6-18.83q1-2.92,2-5.85c2-6,4.05-12.26,6.09-18.74a21.65,21.65,0,0,0,1.16-7.61,4.6,4.6,0,0,0-4.15-4.79,12.59,12.59,0,0,0-2-.24c-2.43-.09-4.87-.17-7.31-.22l-16.82-.32-6.1-.11-7.34-.15c-6.22-.12-12.65-.26-19-.3a68.41,68.41,0,0,0-8.77.67,7.46,7.46,0,0,0-6.18,4.74c-.57,1.36-1.17,2.82-1.64,4.33-3.69,11.78-6.9,22.12-9.82,31.62-1,3.36-2.08,7-3.19,11a5.48,5.48,0,0,0,2.66,6.67,42.31,42.31,0,0,0,6.14,3.05,73.52,73.52,0,0,0,17.59,3.78,247.45,247.45,0,0,0,32.43,1.76,54.07,54.07,0,0,0,7.65-.77,4.27,4.27,0,0,0,3.81-4c0-.31.07-.62.11-.93.06-.54.13-1.08.18-1.61l0-.4c.06-.91.13-1.49.8-1.86a1.3,1.3,0,0,0,.51-.66c.2-.47.42-.94.64-1.4a26.87,26.87,0,0,0,1.36-3.32c3.65-11.76,7.3-23.74,11.19-36.62a27.85,27.85,0,0,0,.95-4.9,3.61,3.61,0,0,0-2.5-4,10.28,10.28,0,0,0-2.66-.73l-3-.3c-3.82-.39-7.78-.79-11.68-1-6-.32-12.29-.51-19.12-.59-4.7-.05-9.49,0-14.12,0-2.57,0-5.13,0-7.7,0a6.74,6.74,0,0,0-6.72,4.5c-.11.28-.24.56-.36.83s-.35.75-.49,1.13L202,116.94c-1.91,5-3.88,10.2-5.69,15.35-1.68,4.79-3.2,9.73-4.67,14.51l-1,3.29a23.84,23.84,0,0,0-.75,3.89l0,.27a1.3,1.3,0,0,0,.45,1,2,2,0,0,1,.19.24l.33.47.63-.56a5.85,5.85,0,0,0,.57-.54.94.94,0,0,0,.19-.63c.2-.84.38-1.69.57-2.53a49.05,49.05,0,0,1,1.4-5.49c3-8.9,6.25-18.07,9.83-28,.91-2.53,2-5,3.11-7.49l.78-1.78a3.21,3.21,0,0,1,3-2l1.83-.1c1.84-.1,3.74-.2,5.6-.19h2.13c6.9,0,14,.09,21,.3s14.06.64,21.26,1.09a37.19,37.19,0,0,1,5.94,1c1.36.31,1.73.88,1.54,2.32a24.48,24.48,0,0,1-.81,3.74c-2.79,9.26-6.1,20.23-9.52,31.34-.69,2.24-1.48,4.48-2.24,6.65L257,155a9.6,9.6,0,0,0-4.33-6.49,17.6,17.6,0,0,0-5.62-2.29l-.25-.06c-1.85-.48-3.76-1-5.59-1.59a4.15,4.15,0,0,1-2.84-3.47,14.37,14.37,0,0,1,.17-5.14c.12-.66.18-.68.55-.67a2.13,2.13,0,0,0,1.38-.66,5.27,5.27,0,0,0,1.82-4.06,2.76,2.76,0,0,0-.86-1.89,1.36,1.36,0,0,0-1.66-.07l.35-1.3c.46-1.73.92-3.46,1.41-5.18a4.35,4.35,0,0,0-1.67-5.13,20.57,20.57,0,0,0-3.71-2.22,14.77,14.77,0,0,0-10.71-.75,8.19,8.19,0,0,0-5.36,5,3.24,3.24,0,0,0,0,2.59,3.4,3.4,0,0,0,2.12,1.69,4.1,4.1,0,0,0,1.33.29h0c2.19,0,4.33,0,6.45-.1.91,0,1.78-.14,2.71-.26l.74-.09a5.82,5.82,0,0,0,1.61,2.77l.25.28a1.92,1.92,0,0,1,.52,1.24c-.45,3-1,6.55-1.75,10.08a9.46,9.46,0,0,1-2.32,4.46,2.77,2.77,0,0,1-2.46.83,2.83,2.83,0,0,1-1.71-.92l.31-.05a3.36,3.36,0,0,0,2.61-1.78,15.68,15.68,0,0,0,1.08-2.95,2,2,0,0,0-1.39-2.51,6.78,6.78,0,0,0-.68-.23l0-.06a8.17,8.17,0,0,0,.61-1.22l.37-1a23.91,23.91,0,0,0,1.17-3.59,4,4,0,0,0-2.76-4.49c-1.65-.62-3-.08-4.23,1.69-.2.29-.39.59-.58.89l-.37.59a3.25,3.25,0,0,0-.3-.51,1.74,1.74,0,0,0-1.42-.85h0a1.66,1.66,0,0,0-1.36.8,6.72,6.72,0,0,0-1.21,5,1.85,1.85,0,0,0,1.05,1.48,2,2,0,0,0,1.9-.26l.16-.11,1.15,6.86a49.24,49.24,0,0,0-18.9,4.92c-2.05,1-4.57,2.5-5.78,5.3a33,33,0,0,0-1.8,6.18c-.34,1.6-.43,2.54,0,3.22s1.33.93,3,1.2c7.73,1.29,14.17,2.36,20.87,3.38,2.82.43,5.66.7,8.35.93-4.3-.24-8.77-.6-13.44-1.08a87.06,87.06,0,0,1-19.67-3.88,22.8,22.8,0,0,1-6.13-3.1,3,3,0,0,1-1.44-3.29l.08-.36c.34-1.53.69-3.11,1.16-4.62,4.16-13.59,7.56-24.59,10.7-34.63.79-2.55,1.71-5.15,2.73-7.71a5,5,0,0,1,3.86-3.16l.13,0a22.61,22.61,0,0,1,4.06-.54c7.39,0,15-.09,22.65,0,9.28.15,18.71.38,27.83.6l6.38.16a54.56,54.56,0,0,1,5.79.35c1.73.23,2.38,1,2.31,2.7a24.58,24.58,0,0,1-.76,5.57c-1.85,6.28-3.59,11.78-5.31,16.81-.5,1.45-1,2.9-1.49,4.35-3.47,10.05-7.05,20.45-9.46,31a26.75,26.75,0,0,1-2.05,5.43,6,6,0,0,1-3.4,3,4.3,4.3,0,0,0-3-2.1,13,13,0,0,0-2-.38l-3.8-.38c-4.6-.47-9.35-.95-14-1.36-4.87-.42-10.06-.86-15.27-1.11-3.66-.17-7.38-.19-11-.2h-2.44a7.18,7.18,0,0,0-2.49.45,2,2,0,0,0-1.22,1.38,2,2,0,0,0,.88,1.61,6.73,6.73,0,0,0,2.08.92l.83.21c2,.52,4.07,1,6.14,1.43a219,219,0,0,0,28.12,3.39,58.71,58.71,0,0,0,14.77-.62l.68-.13-.05.85c-.06,1.06-.12,2.09-.21,3.11a1.59,1.59,0,0,1-.26.89l-1.78.48-.22.06v0a18.45,18.45,0,0,1-2.75.28c-6.29.07-12.84.11-20,.12-2.94,0-5.87,0-8.81,0-4.05,0-8.23,0-12.35,0-2.52,0-5.08.21-7.55.4l-.87.06a5.26,5.26,0,0,0-4.08,2.33,5.24,5.24,0,0,1-2.69,1.88,20.84,20.84,0,0,1-7.54.79c-.65,0-1.3-.08-2-.13a53,53,0,0,0,10.28-12.17l.2-.32a17.61,17.61,0,0,0,2.67-5.61,2.55,2.55,0,0,0-2-3.36,18.13,18.13,0,0,0-2-.42l-.44-.08c-.71-.13-1-.46-1.07-1.11l-.09-1.82,0-1a4,4,0,0,0-2.64-3.87,7.7,7.7,0,0,0-2.46-.52,5.07,5.07,0,0,1-3.36-1.4,33.12,33.12,0,0,0-3.29-2.63,5.29,5.29,0,0,0-5.16-.41,9.93,9.93,0,0,0-3.89,3.22l-.2.24c-1.89,2.19-2.65,2.29-4.8.68s-4.07-3.26-6-4.91l-2-1.66c-3.25-2.73-6.93-5.82-11.3-7.84-4.2-1.94-8-1.71-11.53.69a24.86,24.86,0,0,0-7.38,8.26,10.18,10.18,0,0,0-1.47,7.18,16.85,16.85,0,0,0,4.09,7.8,55.34,55.34,0,0,0,17.6,13.56c6.52,3.37,14,5.88,23.46,7.91,1.71.37,3.45.69,5.13,1l1.28.24A15.31,15.31,0,0,1,164,190.62a22.11,22.11,0,0,1-8.32-3.45c-3.34-2.13-6.7-4.39-9.94-6.56q-2-1.35-4-2.67c-5.7-3.8-12.55-8.08-20.09-11-5.65-2.19-10.4-3.16-14.9-3l-.32,0a55.78,55.78,0,0,0-.33-11.48l.09.08c.74.59,1.42,1.15,2.12,1.67,3,2.23,4.41,2.07,6.77-.72a94.61,94.61,0,0,1,10.47-10.54c2-1.77,4.21-3.48,6.31-5.12l3.19-2.53c2.49-2,2.81-3.86,1.09-6.39a61.6,61.6,0,0,0-4.74-6.06,32.18,32.18,0,0,1-5.8-8.73c-.89-2.1-2-4.14-3.08-6.11l-.28-.52A32.4,32.4,0,0,0,107.1,93.36a44,44,0,0,0-4.29-1.65l-.92-.32c-1.58-.55-2.51-1.65-3.1-3.74a7.47,7.47,0,0,1,1.07,0,6.86,6.86,0,0,1,3.26,1.56c.21.15.41.3.63.44.46.31.91.64,1.36,1,1,.71,2,1.44,3.09,2.06A4.12,4.12,0,0,0,114,91.41a30.5,30.5,0,0,0,2.48-4.72c.57-1.3,1.11-2.63,1.63-3.92s1-2.42,1.49-3.61a25.64,25.64,0,0,1,6.06-7.87,11.31,11.31,0,0,0,3.62-9.24,28.28,28.28,0,0,1,.47-9.21c.58-2.13,1.16-4.25,1.77-6.38a20.07,20.07,0,0,0,.94-7.38,17.21,17.21,0,0,0-.72-3.49,2.14,2.14,0,0,0-1.46-1.35c-.46-.07-1.29,0-1.63,1.48-.08.31-.14.62-.2.93l-.06.34c-.07.34-.13.68-.2,1-.13.72-.26,1.47-.45,2.18-.51,1.88-1.1,3.65-2.74,4.71a7.69,7.69,0,0,0-3.59,6.61,28.31,28.31,0,0,1-.5,4c-.07.36-.29,1-.78.95-.28,0-.39-.22-.58-.85l0-.15a2.69,2.69,0,0,1-.11-.62c0-.57,0-1.15,0-1.72s0-1.23-.05-1.84,0-1.06,0-1.59a37,37,0,0,0-.24-4.05,4,4,0,0,0-1.81-3,4.16,4.16,0,0,0-3.68-.13,9.2,9.2,0,0,0-4.87,4.3,13.77,13.77,0,0,1-3,3.47c-2.22,2-4.4,4.2-6.51,6.28l-2.64,2.6-.22.2a8.31,8.31,0,0,0-.3-1.24c-1-2.74-2-5.65-3.18-8.51A21.29,21.29,0,0,1,91,41.12a25.43,25.43,0,0,1,5.62-15.2,12.63,12.63,0,0,1,6.94-4.64,12.14,12.14,0,0,1,9.15,1.37c2.12,1.19,4.21,2.53,6.23,3.82,1.18.76,2.36,1.51,3.56,2.24l1.61,1A58.28,58.28,0,0,0,129.72,33a8.33,8.33,0,0,0,9.44-1.13,23.64,23.64,0,0,0,6.06-7.51,3.29,3.29,0,0,0,.4-2.74,3.26,3.26,0,0,0-2.16-1.73c-1.6-.57-3.25-1.07-4.84-1.55l-1.25-.38a55.08,55.08,0,0,1-14.24-6.36l-1.59-1c-2.66-1.74-5.4-3.53-8.17-5.17A35.9,35.9,0,0,0,93.62,0,26.25,26.25,0,0,0,76.89,6.36a26.82,26.82,0,0,0-7.84,12.51,63.24,63.24,0,0,0-2.77,23.58c.22,3.21.62,6.45,1,9.59.26,2.09.53,4.25.74,6.37.18,1.87.2,3.79.22,5.65v1.42a.76.76,0,0,1-.28.46c-2.59,1.74-3.43,4.43-4.24,7l-.39,1.22a1.17,1.17,0,0,0-.06.45,27.15,27.15,0,0,0-15.79.1,61.49,61.49,0,0,0-16.77,7.8A39.29,39.29,0,0,0,17.52,96.87a50,50,0,0,0-4.87,14.85c-.86,4.76-1.59,9.62-2.29,14.33-.29,1.93-.58,3.87-.88,5.8l-8,52c0,.27-.1.53-.14.8-.27,1.62-.54,3-.82,4.12-.07.46-.14.92-.22,1.37s-.12.6-.16.91c0,.07,0,.17,0,.21l0,.34a7.23,7.23,0,0,0,0,.93,1,1,0,0,1,0,.23c0,.09,0,.18,0,.27a6.69,6.69,0,0,0,.2.77c0,.13.08.25.12.38v0h0l.3.51A26.12,26.12,0,0,0,3.33,187a1.21,1.21,0,0,0,.08-.44c.27-1.65.55-3.3.83-5,.59-3.51,1.2-7.14,1.74-10.73,2.2-14.61,4.34-29.13,6.89-46.44a127.34,127.34,0,0,1,4.1-20,35.74,35.74,0,0,1,7.41-13.28A41,41,0,0,1,34.45,83a53.38,53.38,0,0,1,16.21-6.58c5.08-1.07,9.36-.78,13.1.9a87.74,87.74,0,0,1,7.94,4.12c8.74,5,16.6,7.14,24.7,6.61l.15.5a7,7,0,0,0,4.19,4.94c.54.2,1.08.38,1.63.56l.4.13a31,31,0,0,1,12.93,8.2,36.16,36.16,0,0,1,6.8,10.7,41.35,41.35,0,0,0,8.08,12.37,29.19,29.19,0,0,1,3.23,4.13c1.46,2.19,1.38,2.62-.79,4.22l-1.21.88c-1.19.86-2.41,1.75-3.57,2.71a121.85,121.85,0,0,0-15.33,14.89c-1.07,1.27-1.29,1.3-2.61.33-1.57-1.15-3.09-2.44-4.51-3.67a2.25,2.25,0,0,1-.67-1.07,20.49,20.49,0,0,0-11.6-13.53,21,21,0,0,0-3.83-1.2l-.54-.13a1.61,1.61,0,0,0-1.6.75,2.2,2.2,0,0,0,.12,1.64,3.14,3.14,0,0,0,.89,1.08l5.24,4.8q4.42,4.05,8.84,8.11a2.15,2.15,0,0,1,.64.88,45.59,45.59,0,0,1,.76,13.58,1.46,1.46,0,0,1-.13.19,21.07,21.07,0,0,0-6.43,1.75A13.68,13.68,0,0,0,91,171.62a20.06,20.06,0,0,0-2.16,9.68,132.89,132.89,0,0,0,1.45,18.15c.26,2.05.52,4.1.75,6.16a7.28,7.28,0,0,0,.62,2.17A1.92,1.92,0,0,0,93,209h.24a2,2,0,0,0,1.52-.79,5.93,5.93,0,0,0,.92-1.38l.07-.13a32.65,32.65,0,0,0,1.33-3,161.92,161.92,0,0,0,9.07-37.14.92.92,0,0,1,.07-.33h0a.57.57,0,0,1,.21,0c.66.06,1.31.09,2,.13a32.85,32.85,0,0,1,3.57.31c6.73,1.09,12.66,3.95,17.57,6.6a175.07,175.07,0,0,1,16.23,10.34l.95.65c4.11,2.83,8.36,5.76,13.21,7.67a16.35,16.35,0,0,0,9.7.84A24.09,24.09,0,0,0,178,189a1.7,1.7,0,0,1,.94-.23c1,0,2,.06,3,.1,1.82.07,3.71.14,5.57.07a10,10,0,0,0,8.14-3.95,2.8,2.8,0,0,1,1.69-.86,49,49,0,0,1,6.2-.48q6.51,0,13,0c2.79,0,5.61,0,8.37,0h1.22c6.17,0,12.56,0,18.83-.08a41.53,41.53,0,0,0,4.74-.36Zm5-23.46c-.06.57-.11,1.16-.17,1.76-.25,2.26-.63,2.67-2.7,3a59.71,59.71,0,0,1-7.79.61c-4.27,0-8.65-.06-13.22-.3a8.26,8.26,0,0,0,2.14-.43,1.51,1.51,0,0,0,1.1-1.19,1.67,1.67,0,0,0-.74-1.61,4.25,4.25,0,0,0-.63-.33l-.2-.1-1.16-.54c-.55-.25-1.09-.49-1.6-.76a4.85,4.85,0,0,0,.93.13l3.38,0c3.76.05,7.66.1,11.49.05,2.22,0,4.39-.17,6.68-.32l2.5-.15Zm-19-37.34,0-.21c-.19-1-.53-1.55-1.62-1.55h-.27c-.95.08-1.89.17-2.84.27-1.16.11-2.33.23-3.49.3a22.81,22.81,0,0,1-2.48,0l-1.12,0-.18,0c-.81-.13-1.31-.36-1.45-.67s0-.83.42-1.5a6.62,6.62,0,0,1,4.82-3.14,13.8,13.8,0,0,1,11,3,2.11,2.11,0,0,1,.79,2.55c-.44,1.51-.87,3-1.3,4.54a7.19,7.19,0,0,0-1.93-2.6A2,2,0,0,1,235.68,122.46Zm-9.77,5.63a6.16,6.16,0,0,0,.44-.65,3.49,3.49,0,0,1,.28-.43l.07-.09c.37-.5.59-.74.92-.74a.87.87,0,0,1,.26,0,1.93,1.93,0,0,1,1.41,1.61.54.54,0,0,1,0,.18v.46l.07,0-.26.67c-.37.91-.73,1.83-1.12,2.74-.13.32-.3.63-.46.94a11,11,0,0,0-.52,1,2,2,0,0,0-.08,1.61,2,2,0,0,0,1.31,1,9,9,0,0,1,.89.31,4.39,4.39,0,0,1-.29,1c-.51,1.46-.85,1.71-2.39,1.79-.3,0-.31,0-.35-.25-.11-.65-.22-1.29-.32-1.94-.25-1.51-.5-3.08-.88-4.59A4.88,4.88,0,0,1,225.91,128.09Zm2.8,34.35c-6.39-.89-11.6-1.65-16.37-2.39-3.61-.55-7.27-1.18-10.81-1.78l-1.41-.24a8.19,8.19,0,0,1-.83-.16,3.37,3.37,0,0,1,.11-.9c.08-.42.17-.84.26-1.26.12-.58.25-1.16.34-1.75.55-3.33,2.52-5.75,6-7.4A47.31,47.31,0,0,1,224.14,142h.09c.3,0,.42.08.61.38a5.81,5.81,0,0,0,4.17,2.79c3,.45,4.58-1.53,5.56-3.06a14.47,14.47,0,0,0,1.26-2.56v.34c.08,3.92,1.74,6.1,5.56,7.32,1,.3,1.94.54,2.89.76s1.92.46,2.85.75a21.39,21.39,0,0,1,4.09,1.75c2.3,1.32,3.46,3.46,3.54,6.47,0,0-.1.14-.07.14l-.55.09a27.54,27.54,0,0,1-3.26.36c-5.4.11-11.33.19-18.67.26a10,10,0,0,1-2.22-.3c-.79-.19-.93-.39-.82-1.16s.27-1.47.42-2.19c.12-.57.24-1.14.34-1.7a16.57,16.57,0,0,0,.28-2.51,1.88,1.88,0,0,0-1.4-2,3.17,3.17,0,0,0-2.17.39,4.49,4.49,0,0,0-1.5,1.82,10.67,10.67,0,0,0-.74,6.86,7.15,7.15,0,0,0,4,4.93l.72.37.47.24A6,6,0,0,1,228.71,162.44Zm-.9-12a4.93,4.93,0,0,1-.06.78c-.11.64-.25,1.28-.38,1.91-.2,1-.42,2.06-.56,3.11l0,.35a7.57,7.57,0,0,1,.55-5.5A2.37,2.37,0,0,1,227.81,150.41Zm23.05,22.86c-1,.17-1.93.33-2.88.43a74.55,74.55,0,0,1-13.55,0,225,225,0,0,1-26.1-3.35c-1.48-.29-3-.67-4.41-1l-.73-.19a23.26,23.26,0,0,1,2.5-.07l1.74.07c5.15.21,10.47.42,15.7.79,6.27.44,12.64,1,18.8,1.59l2.24.21c2,.18,4,.5,6,.84a2.05,2.05,0,0,1,1.39.62ZM70.52,22.33a29.87,29.87,0,0,1,4.64-10.56A22.16,22.16,0,0,1,86.65,3.58c7.41-2.31,15.11-1.47,22.9,2.48a113.38,113.38,0,0,1,10.53,6.38l1.15.76a61.25,61.25,0,0,0,16.18,7.24c2,.6,3.65,1.12,5.3,1.7.58.21.65.32.66.34s0,.18-.26.75A21.43,21.43,0,0,1,137.69,30a6.4,6.4,0,0,1-7.05.87,37.07,37.07,0,0,1-6.65-4L122.7,26l-.5-.34a55.32,55.32,0,0,0-9.86-5.79A14.36,14.36,0,0,0,95,24.1a27.51,27.51,0,0,0-6.4,17.43,22.94,22.94,0,0,0,2,8.83c.28.68.57,1.36.86,2,.57,1.33,1.15,2.69,1.62,4.06a27.15,27.15,0,0,1,.92,4l.1.57a.94.94,0,0,1-.26.62c-3,2.91-6.63,4.07-11.55,3.64-2.59-.22-5.23-.31-7.78-.39l-2.66-.09H71.7a6,6,0,0,0-1,.09,69.42,69.42,0,0,0-1-12c-.24-1.66-.49-3.37-.67-5.06A69.9,69.9,0,0,1,70.52,22.33ZM95.09,85.72c-5.11.35-10-1-13.62-2.25a60.37,60.37,0,0,1-11.77-6,29.22,29.22,0,0,0-4.11-2.06,6,6,0,0,0,.92-.8A14.21,14.21,0,0,0,70.15,68c.14-.58.35-.7.72-.73l.88-.09a13.84,13.84,0,0,1,2.1-.13c2.57.12,5.31.29,8.37.54,5,.4,8.54-.48,11.53-2.84l.62-.47c.07,1.52.13,3,.19,4.54a144.89,144.89,0,0,0,1.33,16.77C95.61,85.66,95.35,85.7,95.09,85.72Zm14-34.67a4.24,4.24,0,0,1,3.24-2,1,1,0,0,1,.24,0,1.13,1.13,0,0,1,1,.85c.29,1.1.55,2.24.79,3.35.07.3.13.6.2.89l-.12,0,0,.38c-.16,3.89-1.11,6.53-3.06,8.57a6.44,6.44,0,0,1-1.62,1.22,1.55,1.55,0,0,1-1.2.21,1.19,1.19,0,0,1-.61-.81,13.31,13.31,0,0,1-.65-3.91A23.84,23.84,0,0,1,109.14,51.05ZM98.2,85.32,98,83.66c-.19-1.52-.38-3-.47-4.43-.3-4.82-.53-9.73-.76-14.48l-.1-2.12a.7.7,0,0,1,.14-.44q4.56-4.55,9.15-9c-.25,1-.48,2-.66,3a17,17,0,0,0,0,7.37,6.68,6.68,0,0,0,.45,1.28,3.42,3.42,0,0,0,4.63,1.89,8.49,8.49,0,0,0,4.5-4.34A16.06,16.06,0,0,0,116,49.55c-.73-2.24-2.22-3.16-4.45-2.76a6.28,6.28,0,0,1,3.76-2.26,1.12,1.12,0,0,1,1.24.94,19.33,19.33,0,0,1,.39,3.18c0,.91,0,1.81,0,2.72,0,1.11,0,2.26.08,3.4a6.7,6.7,0,0,0,.75,2.61,2.66,2.66,0,0,0,2,1.47,2.84,2.84,0,0,0,2.46-.94,6.18,6.18,0,0,0,1.37-3.83l0-.33c.08-.65.14-1.3.2-2s.1-1.12.16-1.68a3.1,3.1,0,0,1,1.3-2.37,11.13,11.13,0,0,0,4.86-7.33A25.76,25.76,0,0,1,128.92,47l-.24.83-.39,1.37a29.21,29.21,0,0,0-1.46,7.53c0,2.1,0,4.2.1,6a8.35,8.35,0,0,1-2.61,6.58c-1,1-2.07,2.14-3.06,3.21l-.12.13c-2.75,3-4.24,6.67-5.68,10.24l-.19.49a62.94,62.94,0,0,1-2.72,6.06A2.77,2.77,0,0,1,111,90.92a2.88,2.88,0,0,1-2.18-.6c-1.16-.72-2.29-1.55-3.38-2.35l-.83-.61a9.1,9.1,0,0,0-5.41-2.12A7.1,7.1,0,0,0,98.2,85.32Zm-6.57,50.79a18,18,0,0,1,9.9,9.06Zm1.85,69.74a16.14,16.14,0,0,1-.34-1.8c-.15-1.52-.31-3-.47-4.54-.54-5.18-1.1-10.54-1.49-15.81a22.19,22.19,0,0,1,1.23-9.56,10.74,10.74,0,0,1,6-6.1,21.68,21.68,0,0,1,3.67-1.13l1.61-.41.14,0C104.09,172.69,96.86,200,93.48,205.85Zm84.83-20.14a1.73,1.73,0,0,1-1.47.39,119.27,119.27,0,0,1-21.5-5.17,65.47,65.47,0,0,1-20-10.8c-2.93-2.35-6.58-5.61-8.9-10a8.34,8.34,0,0,1-1.11-4.1v0a8.17,8.17,0,0,1,1.3-4.26,23.38,23.38,0,0,1,6.32-7.3,8.65,8.65,0,0,1,5.18-1.79,10.52,10.52,0,0,1,4.49,1.11,43.67,43.67,0,0,1,9.14,6.2c1.3,1.08,2.58,2.16,3.87,3.25,1.68,1.42,3.35,2.83,5.05,4.23a13.42,13.42,0,0,0,2.25,1.39,4.23,4.23,0,0,0,5.19-.73c.39-.37.75-.78,1.09-1.17a15.57,15.57,0,0,1,1.1-1.17,12.23,12.23,0,0,1,2.39-1.76,2.59,2.59,0,0,1,2.79.2c1.14.83,2.22,1.73,3.4,2.75a6.36,6.36,0,0,0,4.15,1.64c2.69.2,3,.56,3.17,3.24v.22a17.16,17.16,0,0,0,.18,2.12,3,3,0,0,0,2.38,2.58c.47.11.94.2,1.41.29l1,.2c.53.12.66.23.69.28s.07.2-.1.68a14.46,14.46,0,0,1-1.11,2.55A51.28,51.28,0,0,1,178.31,185.71Z"/></svg>