<svg id="Camada_1" data-name="Camada 1" xmlns="http://www.w3.org/2000/svg" viewBox="0 0 117.65 202.56"><defs><style>.cls-1{fill:#127e7b;}</style></defs><path class="cls-1" d="M112.65,173.35l.06-.12a2.22,2.22,0,0,1,.81-.77l.11-.21c.09-.25.18-.49.26-.74l-.06-.06c.22-.6.45-1.18.67-1.74a34.13,34.13,0,0,0,1.32-3.83,61.46,61.46,0,0,0,1.81-17.11c0-1.38-.2-3.34-1.33-4.55,0-.91,0-1.78,0-2.64,0-2,.06-3.86-.07-5.73s-.42-3.77-.72-5.74c-.1-.67-.21-1.35-.3-2-.25-.73-.45-1.47-.67-2.21-1.09-2-5.4-4.69-7.13-6.08-2.23-1.79-4.75-3.82-7.92-4.45a44.48,44.48,0,0,0-6.52-.77,11.47,11.47,0,0,1-5.43-1.44l-.81-.49a18.13,18.13,0,0,0-3.46-1.75c-3.24-1.09-6.6-2-9.85-2.92l-.5-.14c-3.37-.93-4.51-2.21-4.87-5.46-.21-2-.36-3.94-.5-5.86-.12-1.55-.24-3.15-.39-4.72q-.42-4.27-.87-8.56c-.44-4.29-.91-8.73-1.29-13.1L65,69.28a42.78,42.78,0,0,1-.07-10.84l3.37-3.39c4.38-4.4,8.53-8.57,12.79-12.8a5.46,5.46,0,0,1,1.55-.91l.31-.14c.47-.22,1-.42,1.44-.61.76-.32,1.55-.64,2.29-1a3.31,3.31,0,0,0,1-1A5.11,5.11,0,0,1,88,38.1l.14-.17L88,37.74a2,2,0,0,0-2.71-1c-.66.31-1.31.68-1.92,1s-1,.57-1.48.82l-.23.12a9.84,9.84,0,0,1-2.24.93c-1.16.26-2.35.45-3.5.64-.81.13-1.61.27-2.41.42a10.19,10.19,0,0,0-8.13,6.78c-.61,1.61-1.13,3.22-1.64,4.78-.07.24-.15.47-.22.7L61.41,36.48q.84-1,1.68-2a54.21,54.21,0,0,0,3.51-4.41c2.93-4.3,6.26-9.18,11.09-12.61a1.78,1.78,0,0,0,.14-.14,2,2,0,0,0,.69-2.66l-.06-.08a5.46,5.46,0,0,0-3.75-1.3,10.91,10.91,0,0,1-1.4-.16C78.48,8,81.11,6,83.85,4.87l.34.22a5.54,5.54,0,0,0,1.21.7,5.08,5.08,0,0,0,2.15.43A2.41,2.41,0,0,0,89.79,4c0-1.08-1-1.85-2.29-1.89A21.21,21.21,0,0,0,85,2.21l-1.13.09A16.15,16.15,0,0,0,76.45.07c-4.93-.41-8.55,1-11.09,4.41A4.54,4.54,0,0,0,65,9.75a30.22,30.22,0,0,1,1.37,3.1c.16.4.32.81.49,1.21l-1.2.43c-1.06.38-2.09.75-3.1,1.14-3.35,1.31-5,3.51-5.09,6.73a6.75,6.75,0,0,1-.11.86l-.92-.95c-1-1-1.89-1.95-2.88-2.84-1.91-1.72-4-3.51-6.62-5.63a2.56,2.56,0,0,0-3.51-.13l-.14.11,0,.17c0,.23,0,.47.07.72a7.26,7.26,0,0,0,.31,1.92,13.73,13.73,0,0,0,1.63,3.22c2.82,4.08,5.47,7.82,8.08,11.42a20.54,20.54,0,0,1,3.79,8.34c.33,1.71.6,3.46.86,5.15l.26,1.66c.08.49.15,1,.21,1.49-.15-.18-.28-.36-.42-.56s-.2-.29-.31-.43c-.62-.81-1.23-1.62-1.84-2.44-1.6-2.12-3.24-4.32-5-6.36A17.17,17.17,0,0,0,43,32.6l-.9-.25c-1.42-.38-2.77-.75-3.61-2.08a.94.94,0,0,0-.41-.31l-1.31-.68c-1.05-.54-2.15-1.11-3.24-1.63a11.9,11.9,0,0,0-11.32.3,9.27,9.27,0,0,0-4.83,10.14A29.64,29.64,0,0,0,21,47c.74,1.39,1.48,2.79,2.18,4.09l.73,1.37L23,54.05c-.68,1.23-1.33,2.38-1.91,3.56a5.26,5.26,0,0,0-.43,3.83,2.76,2.76,0,0,0,2.29,2.17,2.68,2.68,0,0,0,2.95-1.18,6.1,6.1,0,0,0,1-2.74c0-1.6-.07-3.22-.17-4.79,0-.61-.08-1.23-.11-1.84a3.53,3.53,0,0,1,1-1.39l2.87-2.6c1.43-1.28,2.9-2.61,4.33-4a14.38,14.38,0,0,0,5-9.93,2.71,2.71,0,0,1,.17-.68v0c7.25,4.2,16.62,16.71,17.35,23l-.1-.11a7.3,7.3,0,0,0-5.95-2.81A11.36,11.36,0,0,0,41.54,59a58.32,58.32,0,0,0-4.27,6.7c-.35.62-.71,1.24-1.07,1.86a2.17,2.17,0,0,0-.12,1.32,5.35,5.35,0,0,1,.05.55v.17l.71.41.16-.12c.14-.11.29-.21.44-.31a4,4,0,0,0,1-.83,7.79,7.79,0,0,0,1.14-2.1,3.36,3.36,0,0,1,2.21-2.22,16.76,16.76,0,0,1,3.54-.77c.73-.08,1.48-.09,2.21-.1a20.38,20.38,0,0,0,2.58-.14c1.7-.23,3.36-.54,5.12-.88l2-.38c.19.74.38,1.49.58,2.25.5,1.92,1,3.91,1.57,5.88,1.68,5.95,1.92,12.14,2,18.49,0,1.67,0,3.38,0,5a75.25,75.25,0,0,0,.38,10.9,2.22,2.22,0,0,1,0,.52v.08l-.2-.13c-.36-.22-.66-.4-1-.6s-.57-.39-.85-.6a12,12,0,0,0-1.83-1.16A4.76,4.76,0,0,0,51.8,104a17.51,17.51,0,0,0-1.68,2.12,16.2,16.2,0,0,1-8.67,6.63l-.09,0c-.62.21-1.55.53-1.43,1.69v.12l.11.08a3.31,3.31,0,0,0,3,.88,13.44,13.44,0,0,0,5.38-2l3.13-1.93c1.39-.87,2.83-1.76,4.26-2.6a10,10,0,0,1,4.42-1.65,24.18,24.18,0,0,1,2.14,4.71,46.09,46.09,0,0,1,2.87,11.21c.32,3.46-.83,5.38-4,6.63a24,24,0,0,1-3.17,1q-5.67,1.43-11.36,2.81l-.49.12-3.14.74-1,.22c1.56-4.15,1-6.45-2.36-9.57-.79-.74-1.66-1.42-2.5-2.07-.46-.36-.91-.71-1.36-1.08-2-1.63-2.09-2.36-.69-4.57.12-.19.24-.38.37-.57a14.39,14.39,0,0,0,1.17-2.06,3.57,3.57,0,0,0,.07-2.91,3.76,3.76,0,0,0-2.41-1.93,3.37,3.37,0,0,0-1.3-.24c-.45,0-.9.08-1.36.12a18.47,18.47,0,0,0-3.91.58,37.83,37.83,0,0,0-11.23,6.11,34.35,34.35,0,0,0-8.2,8.6c-3.64,6.65-4.13,7.92-4.6,9.08C2.7,137,1.55,139.84.53,142.65a6.89,6.89,0,0,0,.36,6.07,3,3,0,0,1,.18,1.37c0,.67-.06,1.34-.1,2a28.07,28.07,0,0,0-.06,3.67,8.79,8.79,0,0,0,3.91,7.12,12.09,12.09,0,0,0,1.51.8l.47.22c-1.27,3.25-.61,6.23,2,8.88a24.17,24.17,0,0,0,3.59,2.87l.76.53a21.18,21.18,0,0,0,2.1,1.28l.53.29c-.21.06-.39.14-.59.2a4.57,4.57,0,0,1,.87.26,5.84,5.84,0,0,1,2.78,2.32h0a10.63,10.63,0,0,1,1.46,1c.88.74,1.74,1.53,2.57,2.3C24,184.91,25.22,186,26.52,187c6.44,4.8,13.2,5.84,20.1,3.07a2.88,2.88,0,0,1,.53-.14l-.12.69a7,7,0,0,1-.53,2,4,4,0,0,0-.16,3.47,8.77,8.77,0,0,0,3.85,4.74,13.31,13.31,0,0,0,6.64,1.7,19.66,19.66,0,0,0,5.26-.78,2.72,2.72,0,0,0,2-1.52,2.85,2.85,0,0,0-.58-2.58,32.48,32.48,0,0,0-2.38-3.06l-.26-.31c-1.52-1.82-3.07-3.64-4.66-5.53l-1.71-2,1.75-.18.4.6c.34.49.65.95.95,1.42.46.71.9,1.44,1.35,2.17.92,1.52,1.88,3.09,3,4.54,2.47,3.34,5.12,5.14,8.33,5.65a9.84,9.84,0,0,0,7.36-1.26,4.79,4.79,0,0,0,.71-7.85,24.69,24.69,0,0,0-1.93-1.62l-1-.75-1.69-1.36c-1.26-1-2.56-2-3.75-3.14a73.83,73.83,0,0,1-8.18-9.52l-.07-.09a14.12,14.12,0,0,1,1.44,1.22c1.45,1.4,2.89,2.83,4.33,4.25,2,2,4.16,4.14,6.3,6.15a59,59,0,0,0,6.89,5.87,8.75,8.75,0,0,0,10.44,0,34.94,34.94,0,0,0,4.74-4,19.7,19.7,0,0,0,4.46-7.22c5.83-.44,9.37-4.21,12.29-8.3ZM68.27,46.47a6.61,6.61,0,0,1,3.88-3.08,44.93,44.93,0,0,1,5.72-1.24A82.56,82.56,0,0,1,68.2,52c-.89.81-1.78,1.61-2.66,2.43A24.16,24.16,0,0,1,68.27,46.47ZM56.81,32.31c-1.32-2-2.78-3.89-4.2-5.74-2.67-3.5-5.44-7.12-7.26-11.24l.09-.08,1.36,1.13c1.17,1,2.39,2,3.56,3,.81.71,1.61,1.48,2.38,2.23L54.22,23a8.11,8.11,0,0,1,2.65,6.08C56.89,30.07,56.88,31.16,56.81,32.31ZM36.52,32l1.12.7a14.78,14.78,0,0,0-3.27,2.53,17.38,17.38,0,0,1-2.66,2.18A9.87,9.87,0,0,1,36.52,32Zm-11.77,28a2.82,2.82,0,0,1-1.44,1.64c-.74-.38-.8-1-.65-2a10.9,10.9,0,0,1,1.95-3.94A5.94,5.94,0,0,1,24.75,59.93Zm9.92-17.78c-1.58,1.63-3.3,3.18-5,4.68l-2.28,2.08c-.49.45-1,.91-1.5,1.42l-.54.51c-.64-1.36-1.37-2.67-2.07-3.94a32.38,32.38,0,0,1-3.61-8.13,8.31,8.31,0,0,1,1.14-7,8.41,8.41,0,0,1,6.36-3.27c.3,0,.58,0,.87,0a10.31,10.31,0,0,1,6.09,2c-.27.3-.54.59-.82.88A33.28,33.28,0,0,0,31,34.07C30.09,35.36,28.9,37,29.59,39l0,.1.1.06a3,3,0,0,0,3.92-.38c.46-.38.89-.81,1.31-1.23s.67-.65,1-1,.88-.73,1.4-1.14l.33-.25A10.75,10.75,0,0,1,34.67,42.15ZM47.5,61.45A36.65,36.65,0,0,0,42,62a7.84,7.84,0,0,1,2.85-3.25,10,10,0,0,1,5.81-2.07,8.29,8.29,0,0,1,1.78.19,5,5,0,0,1,3.74,3C53.43,61.18,50.55,61.31,47.5,61.45Zm1.91,48.92.43-.54c1-1.33,2.11-2.7,3.2-4a3.53,3.53,0,0,1,2.51-1.48h.13A3.6,3.6,0,0,1,58,105.37Zm65.44,48.12c.12-.43.23-.86.34-1.3a35.25,35.25,0,0,1-2.54,11.36l0-.73a12.47,12.47,0,0,1,.23-2.38c.36-1.48.79-3,1.22-4.42C114.37,160.18,114.62,159.34,114.85,158.49ZM86.18,114.74a13.49,13.49,0,0,0,7.72,2h.21a16.26,16.26,0,0,1,10.35,3.45c2.09,1.63,4.16,3.29,6.15,4.88l2.1,1.68c1.05,4.67,2.1,10.82,1,17.28-3.54,2.26-5.76,5.82-7.74,9.28-.4.7-.79,1.41-1.18,2.11-.73,1.34-1.5,2.72-2.32,4s-1.68,1.58-2.94,1a19.16,19.16,0,0,1-8.33-8c.66-.35,1.13,0,1.6.42a19.93,19.93,0,0,1,1.79,1.77l.8.84.52.55a13.45,13.45,0,0,0,1.38,1.34,3.27,3.27,0,0,0,4.43-.23A8.15,8.15,0,0,0,104,149a5.33,5.33,0,0,0-4.43-4.07,5,5,0,0,0-5.49,1.95,7.21,7.21,0,0,1-.93,1l-.27.27h0l.26-.38c.3-.44.6-.88.91-1.31a20.71,20.71,0,0,0,3.5-6.82,17.72,17.72,0,0,0,.28-8.72c-.84-3.68-1.83-7.56-4-11a5.05,5.05,0,0,0-1.69-1.69c-1.87-1.1-3.8-2.16-5.66-3.19L84,113.64a26,26,0,0,0-2.6-1.27A24.25,24.25,0,0,1,86.18,114.74Zm6.56,35.63c.92.15,1.4-.17,2.23-1.19l.33-.42.22-.28c1.19-1.49,2.24-1.88,3.84-1.43a3.63,3.63,0,0,1,2.81,3.28,6.05,6.05,0,0,1-1.83,5.07c-.72.76-1.17.76-2,0a10,10,0,0,1-1.06-1.12L97,154A11.39,11.39,0,0,0,92.74,150.37ZM73.81,110.26c.84.2,1.69.39,2.53.6h0a22.8,22.8,0,0,1-3.36-.8Zm-4.72.36L70,111a26.38,26.38,0,0,0,5.31,1.8,29,29,0,0,1,9.56,3.75l.1,0c1.58.92,3.21,1.87,4.9,2.66A5.49,5.49,0,0,1,93,122.56l.39,1.16c.85,2.59,1.73,5.26,2.41,7.93,1.14,4.49-.49,10.33-3.82,13.88a4.73,4.73,0,0,1,.31-1.42l.07-.21c.32-1,.67-2,1-3s.7-2,1-3c.82-2.58,1.56-5.34.77-8.16-1.28-4.54-4.36-7.64-9.15-9.21a44.67,44.67,0,0,0-6.42-1.43c-7.09-1.2-11.28-6.13-14.14-10.35h0l.95.53A25.59,25.59,0,0,0,69.09,110.62ZM66.28,7.39a6.91,6.91,0,0,1,4.94-4.68,14.75,14.75,0,0,1,10.1.69L79.69,4.72c-1.54,1.24-3,2.41-4.42,3.64-.51.44-1,.91-1.5,1.38a16.75,16.75,0,0,1-4.88,3.56ZM62.51,18c3.18-1.36,6.58-2.67,10.28-2.67.49,0,1,0,1.49.08s1,.16,1.55.26l.59.12.08.18-.19.13c-.3.19-.6.39-.89.6C71.71,19.3,69,22.88,66.6,26.35c-1.2,1.75-2.55,3.44-3.86,5.08-.54.67-1.08,1.35-1.61,2a1.56,1.56,0,0,1-.31.25c-.06-.37-.13-.74-.19-1.1-.19-1.12-.38-2.17-.5-3.23l0-.41c-.24-2.1-.49-4.27-.54-6.41A4.55,4.55,0,0,1,62.51,18Zm-3.38,19.2c.09,0,.16.22.2.48.11.8.24,1.6.38,2.41.24,1.5.49,3,.66,4.58.13,1.26.26,2.53.37,3.79q-.52-3.12-1.07-6.24L58.94,38c0-.23-.06-.45-.08-.69v-.15A.43.43,0,0,1,59.13,37.17Zm4.74,67.15a32.09,32.09,0,0,1-.36-3.55c-.1-4.91-.1-9.85-.08-13.61a74,74,0,0,0-2.32-18.82c-.47-1.84-1-3.67-1.48-5.53-.23-.83-.45-1.66-.68-2.5,1.23-2.23.49-4.51-.49-6.64a55.94,55.94,0,0,0-8.77-13.78q.62.61,1.2,1.26a61.19,61.19,0,0,1,7.38,10.71,10.77,10.77,0,0,0,.89,1.28c.14.18.29.37.42.56l.14.18.21-.08a2.05,2.05,0,0,0,1.21-.91c.11,1.13.22,2.26.34,3.38a8.94,8.94,0,0,0,.89,2.67l.05.11a151.08,151.08,0,0,0,1.46,20.37c.24,2,.47,4,.68,6,.32,3,.52,6.11.71,9.09.14,2,.27,4.17.45,6.25a12.74,12.74,0,0,0,1.94,6.65l-3.6-1.76C64,105.23,63.94,104.78,63.87,104.32Zm-5,33.2c1.77-.84,3.59-1.7,4.39-4a6.07,6.07,0,0,1,3.7,1,3.22,3.22,0,0,1,1.49,2.69A2.87,2.87,0,0,1,67,139.57a9.56,9.56,0,0,1-8.24,1,2.64,2.64,0,0,1-2-1.88A14.19,14.19,0,0,1,58.9,137.52Zm1.89,7.59-3,1.15a6.55,6.55,0,0,1,2.47-1.41h0a2,2,0,0,1,.49.23Zm-18.86-8-4.34,1.37a11.44,11.44,0,0,1,4.14-1.33Zm-2.47-5.67a9.84,9.84,0,0,0,.42-2.29l0-.33a3.74,3.74,0,0,1,.52,4.41c-.73,1.36-1.52,2.5-3.27,2.45,0-.07.07-.14.1-.22.18-.4.34-.76.53-1.09s.39-.66.6-1A9.47,9.47,0,0,0,39.46,131.42Zm-1.87-3a2.87,2.87,0,0,1-.2,2.57,16.62,16.62,0,0,1-1.06,1.7c-.22.31-.43.63-.64.95a3.24,3.24,0,0,0-.41,3.63l-1,.33a8.74,8.74,0,0,1-4,.78,1.88,1.88,0,0,0,1.46-1.43c.28-1.26-.53-2.13-1.25-2.9l-.88-.9a23.17,23.17,0,0,1-1.65-1.78c-.67-.84-.65-1.43.08-2.09A8.17,8.17,0,0,1,35.5,127,2.83,2.83,0,0,1,37.59,128.38ZM15.78,120a36.89,36.89,0,0,1,12.94-7.58,12.24,12.24,0,0,1,4.06-.6,2.18,2.18,0,0,1,1.94.81,2.34,2.34,0,0,1-.33,2.19c-.38.69-.79,1.36-1.19,2l-.41.69a3.68,3.68,0,0,0,.38,4.75,21.73,21.73,0,0,0,1.93,1.89c.17.16.35.31.52.48h0c-.4,0-.72,0-1,0a10.59,10.59,0,0,0-7.25,2.43,4.27,4.27,0,0,0-1.9,2.86,4.22,4.22,0,0,0,1.3,3.13c.43.5.9,1,1.36,1.4l1,1a3.51,3.51,0,0,1,.41.62.75.75,0,0,0,.07.12,4.9,4.9,0,0,1-1.41.22,3,3,0,0,0-2.72,1.25l-.09.14.28.57a9,9,0,0,0-.79-1l-1.48-1.55c-2.44-2.55-5-5.2-7.52-7.73-1.28-1.27-2.77-1.56-5.42-1.56h-.32A26.44,26.44,0,0,1,15.78,120Zm-5.57,8.86a5.15,5.15,0,0,1,5.12,1.65c1.54,1.65,3.14,3.29,4.69,4.88.82.83,1.63,1.67,2.44,2.51a2.15,2.15,0,0,1,.23.27c-.55-.21-1.07-.44-1.58-.67a8.23,8.23,0,0,0-4.31-1.08,4.06,4.06,0,0,0-1,.26l-.33.11-.11,0-.06.1a1.65,1.65,0,0,0,.49,2.49,10.92,10.92,0,0,0,8.59,2,6.25,6.25,0,0,1,1.82-.14c5.42.66,11-.16,17.65-2.57,2.91-1,6.35-2.3,9.82-3.52.62-.22,1.28-.38,1.92-.54l.49-.13-.13.14a8.17,8.17,0,0,0-.91,1,7.21,7.21,0,0,0-.63,1.14q-.12.26-.27.54L45.85,140,40.6,141.6c-4.14,1.29-8.42,2.62-12.61,4A31.67,31.67,0,0,1,19,147h-.27c-2.81.08-5.72.15-8.58.38a30,30,0,0,0-3.31.52c-.64.13-1.28.26-1.93.36a5.22,5.22,0,0,1-1.06,0H3.59Zm-4.35,5.77.51-1.07a101.5,101.5,0,0,1-4.1,11.52C2.64,141.36,4.27,138,5.86,134.67ZM3.59,158.1a12,12,0,0,1-.28-7.87l4.6-.36c3.74-.29,7.6-.6,11.42-.77a40.24,40.24,0,0,0,11.31-2.23c3.75-1.28,7.62-2.44,11.37-3.56l4.67-1.4,5.49-1.67,2.36-.72a.53.53,0,0,1,.13.1,5.85,5.85,0,0,0,4.5,3.3,6.76,6.76,0,0,0-.66.33,45.1,45.1,0,0,0-4.84,3.32,61.9,61.9,0,0,1-18.51,10c-4.22,1.33-8.39,2.51-12.41,3.49a16,16,0,0,1-3.18.32c-.74,0-1.5,0-2.25.13a63.25,63.25,0,0,0-6.82,1.11A5.56,5.56,0,0,1,3.59,158.1Zm8.94,15.2c-1.93-1.35-3.94-3.13-4.23-6.13-.19-1.93.53-2.78,2.58-3s4.34-.59,6.45-.91l3-.46c.42,0,.83-.13,1.24-.2a20.73,20.73,0,0,1,2.93-.35,44.07,44.07,0,0,0,24.94-8.41c2.16-1.51,4.49-2.86,6.75-4.15l2.75-1.61a3.89,3.89,0,0,1,.81-.31h0a11.37,11.37,0,0,0-3.07,5.73,6.76,6.76,0,0,0-.17,1.79A2.3,2.3,0,0,0,59,157.6a12.31,12.31,0,0,0,3.87-.79,29.44,29.44,0,0,0,5.38-2.72c1.78-1.18,2.21-2.77,1.31-4.87a6.76,6.76,0,0,0-6.31-4.44l-.33-.44a5.21,5.21,0,0,0-1.13-1.22,12.22,12.22,0,0,0,5.61-1.34,5.14,5.14,0,0,0-.37-9.59,17.84,17.84,0,0,0-3-.76l-.64-.12c2.6-1.4,3.86-3.71,3.86-7.08a29.74,29.74,0,0,0-1.65-8.93l-.36-1.14c-.35-1.08-.7-2.19-1-3.33l0,0a28.47,28.47,0,0,0,6,6.38,19.12,19.12,0,0,0,8.62,3.82l.41.09a41.89,41.89,0,0,1,7.37,2c5.33,2.15,7.71,7.16,6.07,12.76-.49,1.67-1.07,3.36-1.64,5-.26.74-.52,1.48-.77,2.22a8.6,8.6,0,0,0-.32,5l-.9,1.14-1.32-1.09c-1.18-1-2.28-1.87-3.44-2.77l-.12-.09c-1.43-1.11-2.92-2.26-4.47-3.26-2.26-1.45-4.44-1.47-6.29-.07A5.9,5.9,0,0,0,71,148.05a20.42,20.42,0,0,0,3.32,7.5,186.33,186.33,0,0,0,16,20.51l.35.4-.88,0a19.25,19.25,0,0,1-3.4-.09A6.6,6.6,0,0,1,83.23,175a35.68,35.68,0,0,1-4.5-4.66A28.44,28.44,0,0,0,63.28,160a5.11,5.11,0,0,0-5.7,1.71l-1.21-.85h-.1a3.28,3.28,0,0,0-2.54,1.71l-.09.12-1.45,2c-.88,1.23-1.8,2.5-2.76,3.7a31.82,31.82,0,0,1-9.86,8c-2.73,1.46-5.66,1.83-8.94,2.13C24.32,179.11,18.4,177.4,12.53,173.3Zm49.32-24.62c.46-.52.93-1.05,1.35-1.61a4.42,4.42,0,0,1,4.56,3.39,2.12,2.12,0,0,1-.43,1.63,15,15,0,0,1-8.51,3.54C58.47,152.52,60.12,150.65,61.85,148.68Zm15.07-2.28a5.81,5.81,0,0,1,2.13,4.71c-1.19.49-2.13-.2-3.11-.93l-.18-.13a4.94,4.94,0,0,1-2.18-4.74A3.92,3.92,0,0,1,76.92,146.4ZM62,199.54l-.42.16a4.74,4.74,0,0,1-1.46.41,40.71,40.71,0,0,1-5.95,0,7,7,0,0,1-5.3-3.54,2,2,0,0,1-.12-.25l.12.08c.55.36,1,.66,1.53.95A4.13,4.13,0,0,0,55,197a3,3,0,0,0,1.39-3,2.55,2.55,0,0,0-2-2.21,23.85,23.85,0,0,0-3.52-.46,10.82,10.82,0,0,0-1.5,0l-.36,0a4.8,4.8,0,0,1,2.32-2.85l.6-.45C54,189.16,60.63,196.71,62,199.54Zm-12.68-6,.52-.06c1.7-.2,3.18-.38,4.45.72-.55,1.3-1,1.52-1.95,1.48C51,195.61,50.16,194.85,49.32,193.53ZM53.64,181A7.32,7.32,0,0,1,52,178.08a3,3,0,0,0,2.16.36,2.65,2.65,0,0,0,.57-.12,2.88,2.88,0,0,1,3.2.9,3.72,3.72,0,0,1,.55,3.87h0A6.57,6.57,0,0,1,53.64,181Zm9.52-.4,2.19,2.62a48.18,48.18,0,0,0,8.78,8,18.54,18.54,0,0,1,2.92,2.47,2.56,2.56,0,0,1-.66,4.3,8.5,8.5,0,0,1-8.2.13,11.63,11.63,0,0,1-4.49-4c-1.11-1.51-2.15-3.13-3-4.53-.64-1-1.25-2.05-1.89-3.14l-.67-1.13c2.24-.47,3.09-1.7,2.84-4a5.33,5.33,0,0,0-6.57-5.11l-.93.13c-.4-1.63.37-2.92,2.16-3.55a13.89,13.89,0,0,1,4.11,3.69l.19.22C61,178,62.08,179.26,63.16,180.56ZM98,181.71a7.3,7.3,0,0,1-.49,1.27,21.5,21.5,0,0,1-6.28,7.38c-4,2.92-7.16,2.83-10.86-.31-2-1.71-4-3.59-5.82-5.41-.67-.65-1.35-1.31-2-1.95l-3.66-3.54c-1.71-1.66-3.49-3.39-5.26-5.05a14.67,14.67,0,0,0-9.23-4H54A4,4,0,0,0,50.47,172a7.94,7.94,0,0,0,1.09,9.81,20.11,20.11,0,0,0,2.44,2l.65.48-2.39,1c-2,.88-4.12,1.76-6.17,2.66C41,190.27,35.61,189.91,30.21,187a31.25,31.25,0,0,1-6.58-5.29c-.5-.49-1-1-1.51-1.45l1.74.1c1.85.12,3.76.23,5.65.3,6.54.23,12.49-2.16,18.11-7.29a43.69,43.69,0,0,0,6.75-8c.36-.53.75-1,1.13-1.52l.23-.31,1.43,1.83,4.26,5.43.1.12a6,6,0,0,0,1.61,1.57,8.46,8.46,0,0,0,3.19,1.17,3.59,3.59,0,0,0,3.72-1.9c.78-1.56,0-2.84-.9-3.88-1.47-1.75-3.87-4-7.62-3.48a8.54,8.54,0,0,1-1.6,0l-.48,0c-.33-1.55,0-2,1.16-2.31a5.91,5.91,0,0,1,3.95.48c5.17,2,8.86,4.55,11.61,8.11,1,1.36,2.25,2.64,3.41,3.87.33.34.65.68,1,1a8.9,8.9,0,0,0,7.51,3,16.42,16.42,0,0,1,6.49,1.33l1.09.37c.59.2,1.17.45,1.78.72l.69.29ZM60.61,166.66c3.82-.58,6.65.91,7.49,4-1.23,1.19-2.37,1.23-3.59.13a37.14,37.14,0,0,1-2.87-3Zm50.6,4.6c-2,4.57-6.72,8-10.85,8h-.13a4.93,4.93,0,0,0-3.82-1.5,3.21,3.21,0,0,1-1.74-.68,22,22,0,0,1-3.08-2.82A188.5,188.5,0,0,1,75.76,154c-.36-.55-.67-1.14-1-1.71l-.06-.1.69.26a12.76,12.76,0,0,0,3,.85,2.69,2.69,0,0,0,2.38-.75,2.93,2.93,0,0,0,.51-2.65,10,10,0,0,0-5-6.61l-.33-.18a2.56,2.56,0,0,1,2.14.39c1.56,1,3.21,2.18,5,3.56.66.5,1.32,1.06,2,1.59s1.14,1,1.73,1.44a14.61,14.61,0,0,0,1.57,1l.67.41c.09,2.88,2.07,4.82,4,6.71l.14.13a24.79,24.79,0,0,0,4.34,3.43A4.55,4.55,0,0,0,104.6,160c.82-1.35,1.61-2.75,2.37-4.1.85-1.53,1.74-3.11,2.68-4.62a18.86,18.86,0,0,1,4.25-4.92V149a29.85,29.85,0,0,1-2,12,21.72,21.72,0,0,0-1.2,4.86A8.54,8.54,0,0,0,111.21,171.26Z"/></svg>