<svg id="Camada_1" data-name="Camada 1" xmlns="http://www.w3.org/2000/svg" viewBox="0 0 109.84 171.19"><defs><style>.cls-1{fill:#127e7b;}</style></defs><path class="cls-1" d="M103.67,151a3.82,3.82,0,0,0-.51-.11,1.59,1.59,0,0,1-.71-.24c-.32-.34-.66-.68-1-1a20.36,20.36,0,0,1-3.1-3.62,14.31,14.31,0,0,0-5-5.32,9.39,9.39,0,0,0-.92-6.71A6.9,6.9,0,0,0,88,130.44a27.46,27.46,0,0,0-7.2-1c-4.17.15-8.4.61-12.48,1l-1.54.17c-1.55.16-3.11.4-4.62.62-1.73.26-3.51.52-5.28.69a3.36,3.36,0,0,1-2.55-.52,3.43,3.43,0,0,1-1-2.48,31,31,0,0,1,.15-5.65,8,8,0,0,1,.58-2.06l.24-.65.11.08c.27.2.46.35.66.47a3,3,0,0,0,3.34.09,2,2,0,0,0,.67-1.78,2.58,2.58,0,0,0-2.75-1.91,1.2,1.2,0,0,1-.86-.22,1.39,1.39,0,0,1-.21-1l.15-3.16.14-2.94c.19-4.11-1.07-7.25-3.86-9.59h0v0l1-.26c.92-.24,1.86-.48,2.79-.7l.26-.06c8.75-2.07,17.81-4.21,27-4.33,1.65,0,2.41-.75,2.72-2.59,0-.3.09-.61.13-.91a2.4,2.4,0,0,0,1,1.81c.64.4,1.53.31,3-.29A36.26,36.26,0,0,0,95,90.47c3.55-2.26,7.72-5,11.8-8a9.26,9.26,0,0,0,2.75-3.84v0l0-.2h0s0-.1,0-.15c.07-.53.14-1.06.17-1.58,0-.24,0-.48,0-.72,0-.08,0-.17,0-.25s-.24-.34-.37-.5c-2.66-3.17-6-4.3-10.93-4.39h-.12l-8.55.64c-6.4.47-13,1-19.52,1.49a114,114,0,0,0-38.1,9.82,52.29,52.29,0,0,1-6.88,2.55c-2.52.74-3.91.16-5.32-2.24a8.51,8.51,0,0,1-.66-1.26,55,55,0,0,1-3.9-21.76A7,7,0,0,1,16,57.68c.22-.55.53-.9.86-1a1.29,1.29,0,0,1,1,.45,14.54,14.54,0,0,1,2.65,3.38c.63,1.16,1.2,2.39,1.75,3.58s1.06,2.29,1.66,3.4l.35.64A34.78,34.78,0,0,0,28,74a10.34,10.34,0,0,0,11.84,3.46,17.36,17.36,0,0,0,6.87-4.2c5.18-5,6.86-12.69,4.07-18.75a9.39,9.39,0,0,0-7.07-5.61c-.34-.06-.69-.14-1.1-.24h0l1-.82a9.44,9.44,0,0,0,3.63-6.12c1.12-6.86-3.83-14.3-10.58-15.92-.72-.17-1.44-.29-2.28-.42l-.32,0,.49-.26a10.73,10.73,0,0,0,6.06-8.93,26.32,26.32,0,0,0-.21-6.53c-1-6.29-3.26-8.44-9.57-9.19A68.17,68.17,0,0,0,11.38,1c-5.14.86-8.41,3.8-10,9A33.77,33.77,0,0,0,.88,27.22c1.53,7.11,3.48,14.26,5.38,21.16l.65,2.39c1.58,5.7,3.21,11.59,3.49,17.62.11,2.45.12,4.94.13,7.36,0,1.71,0,3.48.05,5.22.05,2.25.2,4.49.45,6.66a5,5,0,0,0,4.49,4.59,20.84,20.84,0,0,0,4.3.42l2-.07c4.07-.14,8.29-.28,12.41-.68,9.94-1,19.6-2,28.71-3.17,4-.5,8.08-1.16,12-1.8q3.33-.56,6.66-1.07a5.56,5.56,0,0,1,2.07.09,1.26,1.26,0,0,1,.88.5,1.38,1.38,0,0,1,0,1.09,21.19,21.19,0,0,0-.84,4c-.23,1.72-.23,1.72-1.93,1.81l-1.58.07a42.12,42.12,0,0,0-6,.56C69.09,95,64,96.08,59,97.13l-8.38,1.76a3.73,3.73,0,0,1-1.94,0C42.37,96.65,35.47,96,27,97a17.6,17.6,0,0,0-3.66.85c-1.7.56-3.53,1.36-3.71,3.68-.12,1.6,1.32,3,3.85,3.8a16.45,16.45,0,0,0,8.43.11c5.25-1.12,10.49-2.44,15.84-3.81a2.74,2.74,0,0,1,2.74.54,8.19,8.19,0,0,1,3.16,6.49c.06,2.72,0,5.48-.09,8.16l0,1.26a2.18,2.18,0,0,1-.34.83l-.09.15c-1.94,3.42-2.34,7.26-1.24,11.73a3.86,3.86,0,0,0,4,3.07,35,35,0,0,0,3.73-.26c1-.11,1.92-.25,2.93-.39l.11,0-.08.06a4.43,4.43,0,0,0-1.69,1.9c-.35,1.21-1,1.39-2.07,1.66l-.16,0c-5,1.34-8.2,4.44-9.45,9.22a64.78,64.78,0,0,0-1.44,8.78c-.22,1.89-.3,3.83-.38,5.7,0,.63,0,1.27-.08,1.9s-.25,1-1,1.14a2.79,2.79,0,0,0-2.2,1.71,3.16,3.16,0,0,0,.71,3,1.89,1.89,0,0,0,1.64.88,1.83,1.83,0,0,0,1.43-1.11,12.31,12.31,0,0,0,.7-1.63l.14-.36c.53.32.79.57.83.78s-.15.53-.58,1A3.67,3.67,0,0,1,46,169.32a3.44,3.44,0,0,1-2.54-1.77A11.85,11.85,0,0,1,42.18,156a42.54,42.54,0,0,1,2.89-5.46l.22-.36c1-1.7,2.06-3.41,3.07-5.06,1.21-2,2.46-4,3.64-6l.18-.3c.64-1.07,1.44-2.4.51-3.69s-2.44-1-3.68-.81l-.29,0-6.53,1c-6.79,1.05-13.81,2.15-20.68,3.44a85.67,85.67,0,0,0-13.4,3.69c-4.5,1.63-6,4.47-5,9.49.13.66.26,1.31.4,2l.14.68-.21.07c-1.25.46-2.66,1-2.73,2.8a3.9,3.9,0,0,0,2.09,3.69,4.09,4.09,0,0,0,1.72.46l-1,.06c.36.19.73.37,1.09.57s.48.28.73.41l.39.2c.06,0,.47.25.17.08a3,3,0,0,0,.84.26c.07,0,.52.16.19,0a1.37,1.37,0,0,0,.3,0l.44,0,.37-.05c1-.12,2.73-.34,3.06-2.3.5-2.91-1.1-5.46-3.72-5.92A2.43,2.43,0,0,1,5.1,152.6c0-.33-.1-.66-.15-1s-.16-.91-.21-1.37A5.06,5.06,0,0,1,8,144.66l.2-.09A26,26,0,0,1,12,143c12.52-3.44,25.47-5.33,37.61-6.86,1-.13,1.29,0,1.35.14s.14.39-.37,1.31c-1,1.73-2,3.46-3,5.13-.77,1.29-1.58,2.62-2.34,4L44,148.86a52.56,52.56,0,0,0-3.63,6.79c-1.79,4.3-1.25,8.8,1.57,13a5.25,5.25,0,0,0,4.35,2.52h0a5.52,5.52,0,0,0,4.53-2.6,3.16,3.16,0,0,0,.59-2.49,1.72,1.72,0,0,0-.93-1.14c-1.69-.82-1.53-2-1.3-3.62a8.41,8.41,0,0,0,.06-1.12,6.93,6.93,0,0,1,0-.92c.13-1.17.24-2.34.35-3.51a82,82,0,0,1,1.07-8.38c1-5,4.21-8,9.56-9a3.52,3.52,0,0,1,1.79,0,49.94,49.94,0,0,0,11.64,2.78c1,.16,2,.31,3,.49l1,.17a86.36,86.36,0,0,1,15,3.48c3.43,1.25,5,3.27,5.11,6.54a22.07,22.07,0,0,0,.84,4.7l.2.81a3.14,3.14,0,0,0,2.7,2.52c2.5.37,5.29-1.38,5.74-3.6S106.14,151.74,103.67,151Zm4.23-74.32a1.31,1.31,0,0,1-.07,1.33,12.71,12.71,0,0,1-2.94,3.77,72.77,72.77,0,0,1-15.68,9.56c-.47.22-1.34.62-1.55.5s-.27-1.08-.31-1.71-.12-1.24-.2-2c0-.33-.09-.68-.13-1.07a1.5,1.5,0,0,0,.09-.18,2.83,2.83,0,0,1,.56-.88,35.47,35.47,0,0,1,3.58-3.11,45.74,45.74,0,0,1,12.11-6.44,9.92,9.92,0,0,1,3.14-.5A1.58,1.58,0,0,1,107.9,76.66ZM46.56,52.12c1.91,1.43,3.08,3.76,3.47,6.93A15.76,15.76,0,0,1,39.32,75.64,8.42,8.42,0,0,1,29.64,73a26.76,26.76,0,0,1-3.3-5c-.7-1.31-1.35-2.7-2-4S23,61.12,22.25,59.72a14.72,14.72,0,0,0-3-3.88,4.52,4.52,0,0,0-1.1-.74c1.08-.16,2.16-.4,3.21-.64l.76-.17c1.73-.38,3.46-.79,5.2-1.21,3.65-.87,7.43-1.77,11.19-2.38C41.88,50.16,44.58,50.63,46.56,52.12ZM34.16,27.34c5.76.59,9.43,3.84,10.92,9.67a9.2,9.2,0,0,1-.78,7.32c-1.38,2.22-4,3.8-7.55,4.55-.91.2-1.82.37-2.73.55-1.43.28-2.9.57-4.34.91-4,.95-5.95-.16-7-4-.43-1.53-.76-3.12-1.08-4.66-.17-.85-.35-1.69-.54-2.53-.3-1.32-.63-2.73-1-4.15a10.53,10.53,0,0,0-3.3-5.41l.36-.09C22.93,28.11,28.44,26.76,34.16,27.34ZM12.46,2.8c2.06-.26,4.2-.53,6.3-.7a52.68,52.68,0,0,1,13.55.51,6.85,6.85,0,0,1,6.07,6,22.07,22.07,0,0,1,.17,8.5,8.59,8.59,0,0,1-4.68,6.17A30.53,30.53,0,0,1,17.7,26.22c-1.85-.11-2.51-.81-2.63-2.78C15,22,15,20.42,14.93,19s-.06-3.17-.16-4.75a42.68,42.68,0,0,0-.86-6.62,5.65,5.65,0,0,0-3.8-4.49ZM5.83,10.31V9.59a7.63,7.63,0,0,1,.87-2.84A2.77,2.77,0,0,1,9.26,4.94h0a2.39,2.39,0,0,1,2.28,1.81A31.26,31.26,0,0,1,12.83,13c.18,2.3.22,4.65.26,6.93,0,1.2,0,2.4.07,3.59.08,2.3,1.11,3.77,3.06,4.38l-1.28.3c-1.3.3-2.64.61-4,.82s-2.33-.36-2.85-1.91a39.3,39.3,0,0,1-2-7.77A65.83,65.83,0,0,1,5.83,10.31ZM5.24,37.44C2.72,28.63,1,21.08,2.56,12.93A15.69,15.69,0,0,1,4.22,8.08c-1.42,8.71.42,18.62,4.3,22.61A10.71,10.71,0,0,0,5.24,37.44Zm2.13-.75a6.82,6.82,0,0,1,5.06-5.9c2.22-.49,3.47,0,4.44,1.85a22.51,22.51,0,0,1,1.91,5.08c.42,1.6.76,3.26,1.09,4.86.26,1.25.52,2.54.83,3.8.45,1.92,1.28,4.26,3.67,5.56h0l-2.27.43c-1.85.36-3.76.73-5.65.92a6.29,6.29,0,0,1-6.31-3.35A19.68,19.68,0,0,1,7.37,36.69ZM81.89,83.94a9.56,9.56,0,0,0-2.5.24l-.34.07a467.66,467.66,0,0,1-52.12,6.34,67.93,67.93,0,0,1-9.57,0c-3.47-.25-4.54-1.37-4.76-5-.17-2.91-.15-5.83-.11-8.31a75.28,75.28,0,0,0-1.14-16.48c-.47-2.32-1-4.66-1.6-6.92-.13-.53-.25-1.05-.38-1.58a8.89,8.89,0,0,0,6.2,2.88,3.8,3.8,0,0,0-1.44,2.07,12.73,12.73,0,0,0-.57,3.54,52.77,52.77,0,0,0,2.21,16A38.92,38.92,0,0,0,18.41,84c1.55,3.11,3.89,4.12,7.34,3.2a34.93,34.93,0,0,0,6-2.12c13.28-6.3,28-9.78,46.24-11,7.75-.5,14.64-1,21.06-1.43h0a15.53,15.53,0,0,1,6.68,1.5,17,17,0,0,0-4.85,1.23c-6.41,2.71-11.2,5.75-14.65,9.28l-1.29-.25A26.78,26.78,0,0,0,81.89,83.94ZM43.38,100.87c-4.92,1.36-10,2.76-15.2,3a16.36,16.36,0,0,1-5.28-.9,2.24,2.24,0,0,1-1.3-1.44,2.33,2.33,0,0,1,1.3-1.47,19,19,0,0,1,4.87-1.34,57.92,57.92,0,0,1,6.08-.34,46.28,46.28,0,0,1,11.61,1.43,5.44,5.44,0,0,1,.74.26ZM46.3,167l-.19,0v-.07c0-.44,0-.89.09-1.33h.26ZM5.44,161.54c.82-.38,1-2,1-2.32a7.58,7.58,0,0,0-.13-2c0-.13,0-.26-.05-.4,1.88.21,2.84,1.15,2.93,2.87.07,1.28,0,1.65-2.56,1.83l-1.38.1-.3,0A1.51,1.51,0,0,0,5.44,161.54Zm-2.83-3.4c-.07-.25-.29-1,.86-1.36a1.24,1.24,0,0,1,.39-.07.44.44,0,0,1,.26.07c.16.1.26.38.3.82,0,.59.1,1.18.15,1.85l0,.55A2.63,2.63,0,0,1,2.61,158.14ZM91.2,136.23l-3.31-3.84A4.9,4.9,0,0,1,91.2,136.23ZM62.48,136l-.06-.16.54-.42a11.11,11.11,0,0,1,1.63-1.13c5-2.57,10.4-2.71,14.58-2.54.41,0,.82.06,1.23.1l.59.06c3.84.33,6.53,1.94,8.23,4.93.41.71.82,1.41,1.29,2.2l.26.43A86.25,86.25,0,0,0,66,135.93C64.82,135.93,63.65,136,62.48,136Zm14.83,3.82c-1.74-.27-3.54-.56-5.3-.88-1.53-.28-3.08-.6-4.59-.91a60.46,60.46,0,0,1,13.83,1.15A81.8,81.8,0,0,1,90,141.3a10.37,10.37,0,0,1,4.63,2.76C88.92,141.66,83,140.72,77.31,139.81Zm24.11,13.26.6,1.58-.08,0-.54-1.59Zm-1.62-1h0a.61.61,0,0,0-.07.1c-.06-.33-.11-.65-.16-1l-.18-1.09c.43.3.81.59.86.94A1.46,1.46,0,0,1,99.8,152.08Zm4.72,5a2.57,2.57,0,0,1-3,.68,2.7,2.7,0,0,1-1.08-1.67c0-.12,0-.24-.08-.36a3.07,3.07,0,0,0,1.11.9,1.48,1.48,0,0,0,1.28.05c1.44-.68,1.18-2,1-3l0-.1c0-.17-.07-.33-.12-.53a2.21,2.21,0,0,1,1.73,1.93A3.06,3.06,0,0,1,104.52,157.08Z"/></svg>