<svg id="Camada_1" data-name="Camada 1" xmlns="http://www.w3.org/2000/svg" viewBox="0 0 137.29 168.37"><defs><style>.cls-1{fill:#127e7b;}</style></defs><path class="cls-1" d="M72.63,164a7.3,7.3,0,0,1,2.13.46,16.67,16.67,0,0,0,2.11.39,37.79,37.79,0,0,0,4.39.31c1.32,0,2.65,0,4,0l-.12,0c.53,0,1.07,0,1.6,0h3.59l1.62,0a37.41,37.41,0,0,0,20.12-6.81c15.34-10.9,23.76-25.61,25-43.72A79.54,79.54,0,0,0,132,80.35c-4.67-12.21-11.52-21.2-21-27.49C105.2,49,98.12,44.69,90,42.76c-2.32-.56-4.72-.93-7.05-1.29-1.2-.18-2.41-.37-3.61-.58l-.32,0a4.77,4.77,0,0,1-1.62-.47l.14-.09A8.36,8.36,0,0,1,79,39.53a17.35,17.35,0,0,1,8.53-.6A32.77,32.77,0,0,1,100,43.52,126.75,126.75,0,0,1,114.5,53.78l1.11.9c.86.7,1.75,1.43,2.67,2.1a2.3,2.3,0,0,0,2.14.54,2.19,2.19,0,0,0,1.17-1.78c.33-1.65.53-3.36.73-5,.05-.48.11-1,.17-1.44a8.24,8.24,0,0,0-2.25-6.79c-.11-.12-.21-.25-.31-.38a5.45,5.45,0,0,0-.38-.46l-2.06-2.25c-2.12-2.31-4.3-4.7-6.49-7a1.41,1.41,0,0,1-.4-1.8c.55-1.3,1-2.63,1.43-4A2.2,2.2,0,0,0,111,23.66a11.53,11.53,0,0,0-5.23-1.59,2.84,2.84,0,0,0-3,2.08c-.12.31-.21.63-.3,1s-.12.45-.2.67c-.22.66-.42.7-.66.69-2.25-.12-3.46-.58-3.85-2.73-.62-3.48-1.55-6.95-2.45-10.31l-.15-.57a9.68,9.68,0,0,0-4.33-5.73,36.18,36.18,0,0,0-4.9-2.67A52.62,52.62,0,0,0,68.77.26,63.75,63.75,0,0,0,51.41,1,18.38,18.38,0,0,0,37.6,11.59a38.5,38.5,0,0,0-1.7,4c-1,3.05-1.8,5.84-.67,8.87h0c-.5,0-1,.06-1.43.12A2.4,2.4,0,0,1,31,22.94c-.22-.5-.44-1-.65-1.52s-.5-1.2-.76-1.79a2.81,2.81,0,0,0-1.47-1.7,2.6,2.6,0,0,0-2.05.3,43.46,43.46,0,0,0-4.6,2.69c-1.39.92-1.62,2-.73,3.45.54.88,1.12,1.75,1.68,2.59q.48.7,1,1.44c.21.33.41.67.62,1l.1.18-.06.05-.62.54-2.27,2c-1.77,1.55-3.61,3.16-5.37,4.79a17.66,17.66,0,0,0-5.1,7.16,22.06,22.06,0,0,0-.81,9.35,18,18,0,0,0,.68,3.63c.67,2.18,2.1,3.13,4.25,2.82a25.12,25.12,0,0,0,5.06-1.36c1.69-.6,3.39-1.27,5-1.91s3.28-1.27,4.94-1.87a20.42,20.42,0,0,1,3.75-.86A1.65,1.65,0,0,1,35.47,55a1.83,1.83,0,0,0,2.64,1.1c.67-.22,1.3-.49,2-.78l.46-.2L41.82,58a8,8,0,0,0-6.63-1.62A24,24,0,0,0,24.24,61a56.27,56.27,0,0,0-10.7,10.14A57.37,57.37,0,0,0,.18,104.26a80.43,80.43,0,0,0,2,23.75c1.73,7.61,4.33,13.44,8.18,18.35a84.71,84.71,0,0,0,12,12.42,40.47,40.47,0,0,0,11.59,7.09c1.25.23,2.41.7,3.65,1a24.17,24.17,0,0,1,3.51.94c.91.15,1.83.3,2.74.47a3.09,3.09,0,0,0,3.49-1.41c.64-1,1.34-1.93,2-2.86s1.36-1.87,2-2.83a24.74,24.74,0,0,0,1.77-3.35,4,4,0,0,0-.1-3.69,9.53,9.53,0,0,0-.84-1.29,44,44,0,0,0,4.73,3.73l-.07.09.42.29c.11.08,4.94,3.36,15.25,7ZM37,22a14.82,14.82,0,0,1,.48-3.61,46.45,46.45,0,0,1,2.25-5.85A16,16,0,0,1,52,3.25,60.61,60.61,0,0,1,70,2.7,49.41,49.41,0,0,1,85,6.59,35.18,35.18,0,0,1,89.46,9a7.57,7.57,0,0,1,3.45,4.58c.88,3.35,1.8,6.92,2.56,10.58A6,6,0,0,0,98.06,28a5.38,5.38,0,0,0,4.17.63,3.85,3.85,0,0,0,1.8-1.36,2.93,2.93,0,0,0,.5-1.2c0-.11,0-.22.08-.33.45-1.55.61-1.64,2.17-1.24.49.13,1,.3,1.46.48l1,.35a.87.87,0,0,1,.51.32,1,1,0,0,1-.08.68c-.15.37-.28.75-.42,1.13a18.18,18.18,0,0,1-.74,1.87c-.81,1.72-.53,3.1.94,4.6,2.06,2.12,4.07,4.36,6,6.53l3,3.28a6.46,6.46,0,0,1,1.76,5.46l-.7,5.61-.2-.15c-.42-.32-.85-.64-1.26-1a140.5,140.5,0,0,0-15-11A39.93,39.93,0,0,0,89.66,37a27.92,27.92,0,0,0-5.47-.59,17.73,17.73,0,0,0-4.27.49,12.88,12.88,0,0,0-4,1.76,3,3,0,0,0-.77.74c-.06-.2-.12-.4-.2-.62a4.56,4.56,0,0,1,1.25-5.17A18.37,18.37,0,0,1,88.79,28c.66,0,1.33,0,2,0h1.48a2.81,2.81,0,0,0,2.17-.7,2.63,2.63,0,0,0,.47-2.1c-.68-7.69-4-13.17-10.11-16.74a33.09,33.09,0,0,0-14-4.3,74.61,74.61,0,0,0-13.76-.08A20.73,20.73,0,0,0,38.34,20.19l-.14.59c-.13.55-.25,1.07-.42,1.57a6.22,6.22,0,0,1-.48,1A2,2,0,0,1,37,22Zm1.15,27.9c.32.8.68,1.58,1.06,2.4l.33.71-2,.92a3.94,3.94,0,0,0-4.85-2.18,57.5,57.5,0,0,0-6.25,1.85c-1.73.61-3.46,1.29-5.14,1.95-1.12.45-2.25.89-3.38,1.32a20.87,20.87,0,0,1-2.58.75,2.65,2.65,0,0,1-2-.1,2.26,2.26,0,0,1-.74-1.61,42.17,42.17,0,0,1-.46-7.2c.1-3.82,1.89-7.08,5.81-10.57,1.5-1.33,3-2.64,4.52-4l2.37-2.07a9.71,9.71,0,0,0,.81-.76,2.32,2.32,0,0,0,.26-3.3q-.79-1.21-1.62-2.43l-1.12-1.66c-.17-.26-.32-.52-.49-.82L22.58,23a17.87,17.87,0,0,1,4.67-2.76c.14.26.26.51.37.76l.54,1.25c.27.65.55,1.31.85,2a4.49,4.49,0,0,0,4.87,2.72l2.93-.28c2.29-.23,4.58-.46,6.87-.66,1.86-.16,3.79-.26,5.49-.35a2.83,2.83,0,0,1,2.61,1.18c2.4,3.32,4.31,6,6,8.51.45.66.41.88-.26,1.39a20.27,20.27,0,0,1-2.83,1.88c-3.12,1.69-6.26,3.35-9.39,5L40.86,46c-.58.3-1.17.61-1.74,1A2,2,0,0,0,38.16,49.86Zm3.48,2.08c-.07-.15-.14-.29-.2-.44a17.7,17.7,0,0,1-.91-2.15,1,1,0,0,1,.27-.66,6.31,6.31,0,0,1,1.3-.78l.47-.24,4-2.15q4.71-2.49,9.4-5a19.7,19.7,0,0,0,3.23-2.25,2.66,2.66,0,0,0,.64-3.87c-1.94-2.9-4.1-5.95-6.59-9.31a4.37,4.37,0,0,0-3.94-1.71c-2.21.13-4.41.28-6.62.44L40.48,24l-.83.07.2-.71c.3-1,.58-2,.85-3A18.39,18.39,0,0,1,56.93,6.43a61.49,61.49,0,0,1,17.8.68A26.45,26.45,0,0,1,86.3,12.37c3.25,2.59,5.24,6.26,6.07,11.23.09.54.16,1.08.23,1.67l.05.42h0c-.34,0-.64.06-.94.07h-1.5a29.78,29.78,0,0,0-3,.07,20.72,20.72,0,0,0-12.14,5.68c-2.53,2.3-3.28,5-2.22,8a1.4,1.4,0,0,1,.13.94,1.5,1.5,0,0,1-.89.45c-1.44.4-2.9.75-4.35,1.11-1.27.31-2.53.62-3.78,1A114,114,0,0,0,43.8,50.9ZM39.06,163.59l-.52,1.06-.1.21a3.52,3.52,0,0,1-.49-.11,32.16,32.16,0,0,1-9.74-4.43,73.38,73.38,0,0,1-15-14.09,39.91,39.91,0,0,1-7.75-14.8,84.79,84.79,0,0,1-3-17.13,59.57,59.57,0,0,1,2-21.45A57,57,0,0,1,26,62.62a18.49,18.49,0,0,1,10.46-4h.34a5.93,5.93,0,0,1,2.64.52A9.22,9.22,0,0,1,42,61.6c.27.32.55.64.83.95l-.74.9a48.43,48.43,0,0,0-9.63,19c-1.77,7-2.44,14.81-2.11,24.46a57.55,57.55,0,0,0,3.3,18,72.19,72.19,0,0,0,16.46,26c-.2-.14-.41-.27-.62-.39a2.43,2.43,0,0,0-3.42.41,11.61,11.61,0,0,0-2,2.59c-1.28,2.45-2.54,5-3.75,7.4Zm11.3-5.32c-1.34,2.18-2.87,4.31-4.34,6.37l-.72,1a1.09,1.09,0,0,1-.74.36c-1-.1-2.07-.28-3.16-.47l-.64-.11.51-1.12c.55-1.21,1.08-2.36,1.66-3.49l.28-.55c1.1-2.15,2.24-4.38,3.51-6.47.55-.91,1-1.35,1.29-1.39s1.13.59,1.69,1.16C51.47,155.36,51.6,156.24,50.36,158.27ZM69.1,160a60.75,60.75,0,0,1-10.37-5.12l-.42-.29-.07.11a42.82,42.82,0,0,1-7.6-6.54c-8.18-8.91-13.48-18.28-16.19-28.65-2.08-7.93-2-15.89-1.7-22.63a67.61,67.61,0,0,1,2.37-15.27A47.12,47.12,0,0,1,48.56,59.93a77.77,77.77,0,0,1,8.38-6.88,28.1,28.1,0,0,1,23.47-4.56,77.63,77.63,0,0,1,29.68,13.93c5.73,4.35,10,10.31,13.53,18.75a58.06,58.06,0,0,1,4.16,19.93,73,73,0,0,1-2.23,22.21,47.07,47.07,0,0,1-9.81,19.19A40.23,40.23,0,0,1,91.6,156a35.31,35.31,0,0,1-24.92-4.7A59.7,59.7,0,0,1,49.21,136a34.15,34.15,0,0,1-5-9.6c-1.46-4.29-2.84-8.58-4.09-12.78A42.28,42.28,0,0,1,38.92,96a71,71,0,0,1,5-18.83A35.4,35.4,0,0,1,54.09,63a32.16,32.16,0,0,1,16.7-7.21A15.22,15.22,0,0,1,75.4,56a7.78,7.78,0,0,1,5.46,3.84,1.64,1.64,0,0,0-.5-.09A1.88,1.88,0,0,0,78.94,61a8.82,8.82,0,0,0-.46,2.62l0,3.24c-.07,5.83-.15,11.85-.1,17.78,0,3.22.27,6.48.5,9.64l.1,1.3a20.58,20.58,0,0,0,.73,4,6,6,0,0,0,.79,1.55c.09.13.17.26.25.39l-.12.18a6.77,6.77,0,0,0-1.42,3.22q-.08.33-.15.69l-1.7,1.09-4.51,2.91-2.36,1.53c-3.51,2.27-7,4.55-10.52,6.86a23.79,23.79,0,0,0-2.47,2l-.38.33a4.28,4.28,0,0,0-1,1.25,1.59,1.59,0,0,0,0,1.68,1.54,1.54,0,0,0,1.53.61,6.26,6.26,0,0,0,2-.6l.52-.26a41.28,41.28,0,0,0,4-2.16c3.3-2.13,6.63-4.34,9.86-6.48L77.4,112a2.87,2.87,0,0,0,.37-.3l.56-.45-1.1-1.77,2.13-1.34.41-.25.33.22a4,4,0,0,0,1.3.65,2.41,2.41,0,0,0,2-.44,3.23,3.23,0,0,0,1.2-2.44,15.64,15.64,0,0,0-.12-3.34,22.18,22.18,0,0,1,.28-7.12c.1-.72.2-1.43.29-2.15a115.68,115.68,0,0,0,.6-24.55,27.9,27.9,0,0,0-1.87-8.06C82,56,78.4,53.6,73.26,53.38a24,24,0,0,0-8.66,1.36,35.51,35.51,0,0,0-21.68,19A71.69,71.69,0,0,0,36.59,96.1a47.89,47.89,0,0,0,2.21,21.41c.56,1.66,1.1,3.33,1.64,5,.4,1.27.81,2.53,1.23,3.79a41.19,41.19,0,0,0,10.11,16.25,70,70,0,0,0,12.84,10.21c10.71,6.65,22.32,7.88,34.52,3.66a42.14,42.14,0,0,0,23.34-19.47,57.87,57.87,0,0,0,7-21.73,77.1,77.1,0,0,0,.21-19.29C128.1,82.74,123.3,72.2,115,63.68a51.57,51.57,0,0,0-11.83-8.61,79.1,79.1,0,0,0-23-9,30.89,30.89,0,0,0-23.69,4.41A63.78,63.78,0,0,0,45.9,59.27a8.67,8.67,0,0,0-.68.77l-2.59-6,.48-.23c.65-.32,1.28-.64,1.92-.94a107.4,107.4,0,0,1,20.45-7.94L69.24,44l2.53-.61c.36-.09.73-.2,1.08-.32a3.91,3.91,0,0,0,2.3-1.57,2.8,2.8,0,0,0,1.38,1,17,17,0,0,0,4,.88c12.25,1.14,23.64,6.3,34.81,15.75,5.21,4.4,9.38,10.31,13.14,18.6a74.37,74.37,0,0,1,6,22.84,72.5,72.5,0,0,1-.21,18.67,53,53,0,0,1-16,31,54.16,54.16,0,0,1-10.54,8.1c-5,2.92-10.86,4.42-17.82,4.58a65.06,65.06,0,0,1-18.61-2.31c-.72-.19-1.41-.42-2.11-.65ZM81.73,98.31a11.89,11.89,0,0,1-.52-3.07v-.16a253.51,253.51,0,0,1-.51-29.82c.06.58.11,1.16.14,1.73.36,9.68.71,19.89,1,30.36A3.28,3.28,0,0,1,81.73,98.31Zm.56,7.66a.66.66,0,0,1-.29.45h0l-.18,0Zm-8.5,5.66-2.22,1.51c-2.83,1.93-5.73,3.91-8.73,5.7,2.64-1.77,5.52-3.69,8.41-5.57Zm9.27-45.07c.07.39.13.79.18,1.21a80.17,80.17,0,0,1,.45,13.61c-.11-3.81-.23-7.73-.39-11.59C83.26,68.72,83.17,67.63,83.06,66.56Z"/></svg>